<svg width="238" height="131" viewBox="0 0 238 131" fill="none" xmlns="http://www.w3.org/2000/svg">
<path d="M70.3075 72.0762C69.7409 72.2268 69.2245 72.3703 68.7153 72.4635C63.2575 73.4102 59.3918 70.355 59.2627 64.0007C59.0045 53.3289 68.7368 35.0908 72.9969 29.7405C65.6816 34.682 46.3748 60.7948 46.5039 66.267C46.5039 67.3213 42.918 66.059 42.8821 63.7855C42.7459 58.2058 54.1061 34.4668 57.9431 29.6975C50.8931 35.0836 40.8094 47.3834 33.6662 57.3452C27.0753 66.7619 23.8622 72.65 23.8981 74.1991C23.8981 74.9163 26.9605 72.6141 26.7669 72.8651C25.5736 74.6013 23.8142 75.8689 21.7896 76.4511C21.5571 76.4613 21.325 76.4229 21.1081 76.3386C20.8911 76.2543 20.6941 76.1257 20.5296 75.9611C20.365 75.7966 20.2365 75.5996 20.1521 75.3827C20.0678 75.1657 20.0295 74.9337 20.0396 74.7011C19.8675 67.6225 45.3995 29.5971 45.2058 21.751C45.1484 19.1476 42.7674 19.1189 40.8668 19.4488C26.4656 21.9518 3.37931 52.0523 3.46537 55.5378C3.46605 55.6657 3.49569 55.7917 3.55206 55.9064C3.60842 56.0212 3.69005 56.1217 3.79081 56.2004C3.89158 56.279 4.00885 56.3339 4.13384 56.3607C4.25883 56.3876 4.38828 56.3858 4.51247 56.3554C5.37373 56.1365 6.21377 55.8413 7.02263 55.4733C7.02263 55.9753 3.98175 57.8328 2.79839 58.0408C1.15602 58.3277 0.0372035 57.13 0.00134399 55.4733C-0.213813 46.573 25.4544 20.7398 40.831 18.0647C45.7222 17.2184 48.4045 19.4202 48.5192 23.9528C48.6412 29.2026 40.4293 44.0341 33.824 55.1506C48.2108 34.7178 61.0772 22.3822 63.3938 21.9805C65.0433 21.6937 67.7614 22.9416 68.0698 25.1075C67.8547 24.8134 67.2881 24.7991 66.9295 24.8636C64.8712 25.2222 52.3992 47.7061 47.343 61.0243C57.3837 40.2904 80.8286 16.5084 84.2711 15.9131C86.0211 15.6047 88.5097 18.1149 88.7464 19.3556C88.2111 19.1762 87.6348 19.1588 87.0897 19.3054C82.4638 20.1087 62.3108 51.9232 62.6192 64.5888C62.7483 69.896 64.9572 71.6746 70.4581 70.5558L70.3075 72.0762Z" fill="url(#paint0_linear_1402_19880)"/>
<path d="M85.7485 47.8927C84.2424 49.6928 74.4169 60.006 72.2581 60.3574C72.0993 60.3586 71.9415 60.3319 71.792 60.2785C70.8524 59.9701 69.4683 58.2274 69.4468 57.1946C69.3105 51.5647 80.8142 38.1246 90.2811 36.5754C92.2319 36.2527 94.8281 36.6615 94.8855 39.0856C94.8331 40.0186 94.5145 40.917 93.9675 41.6746C93.8671 41.7392 93.7595 41.6746 93.8097 41.6746C94.1365 41.0751 94.316 40.4065 94.3332 39.7239C94.2974 38.1748 93.3005 37.5723 91.7585 37.9166C88.775 38.562 85.0743 41.3447 81.7968 44.7299C77.0131 49.7502 73.3124 56.8504 73.7786 57.0297C73.8389 57.0468 73.9023 57.0506 73.9642 57.0407C74.0262 57.0308 74.0852 57.0074 74.1372 56.9723C75.8226 56.126 82.9012 49.7359 85.519 47.0249C86.4298 46.0423 89.693 42.2484 90.9625 41.2874C91.9809 40.606 93.8312 43.1592 93.6017 43.8119C93.3363 43.3385 88.8396 49.7215 87.3765 53.2788C87.119 53.8631 86.9591 54.4858 86.9032 55.1219C90.1233 53.6876 97.3096 45.3825 100.429 41.8683C100.445 41.842 100.466 41.8192 100.49 41.8013C100.515 41.7834 100.543 41.7708 100.573 41.7642C100.602 41.7576 100.633 41.7572 100.663 41.763C100.693 41.7688 100.722 41.7807 100.747 41.7979C100.772 41.8152 100.793 41.8374 100.809 41.8632C100.825 41.8891 100.836 41.9179 100.841 41.9481C100.845 41.9782 100.844 42.009 100.836 42.0384C100.828 42.0679 100.814 42.0954 100.795 42.1193C96.4346 47.7564 88.2586 57.7469 85.1747 58.2561C84.8703 58.2842 84.5641 58.2245 84.2926 58.0839C83.5754 57.7899 82.557 56.8647 82.5355 55.9324C82.5851 55.2612 82.7078 54.5975 82.9012 53.9529C83.5826 51.8176 84.5397 49.7803 85.7485 47.8927Z" fill="url(#paint1_linear_1402_19880)"/>
<path d="M105.106 34.5099C105.301 34.3156 105.551 34.1855 105.823 34.137C107.064 33.929 109.064 35.6287 109.093 36.9125C109.093 37.1205 108.943 36.9125 108.527 36.9125C107.752 36.9842 106.002 39.2936 104.51 41.6101C103.02 43.8389 101.644 46.1416 100.386 48.5095C103.026 44.5004 108.068 39.3223 112.414 35.3921C114.386 33.6206 115.914 32.5233 116.989 32.2077C117.556 32.0643 119.715 33.9433 119.363 34.4167C118.266 35.7865 114.085 40.2546 112.485 44.5577C114.945 43.9481 118.438 41.0435 121.565 37.6799C121.615 37.6225 121.917 37.5221 121.974 37.6154C121.077 39.0067 115.046 45.7985 111.496 46.3794C110.571 46.53 108.978 44.945 108.964 44.3569C108.928 42.9226 110.506 39.645 111.833 37.9022C107.84 40.8358 104.32 44.3648 101.398 48.366C98.8373 51.6364 95.861 56.6854 97.0085 57.0153C95.5239 57.6249 94.2473 56.2264 93.8529 54.8638C93.8422 53.896 94.0898 52.9429 94.5701 52.1026C96.0991 48.5036 97.9146 45.0332 99.9992 41.7248C101.446 39.1492 103.158 36.7312 105.106 34.5099Z" fill="url(#paint2_linear_1402_19880)"/>
<path d="M116.918 52.999C116.086 52.8771 114.766 51.7941 114.766 50.8474C114.694 47.8496 121.881 35.3705 125.115 32.2005C125.307 31.9675 125.577 31.812 125.875 31.763C127.059 31.5694 129.167 33.2978 129.196 34.5887C129.196 34.7967 128.938 34.5887 128.529 34.5887C126.413 34.7322 119.65 47.6559 119.084 49.872C122.203 48.5309 129.54 40.1254 132.603 36.5682C132.961 36.2526 133.227 36.6184 133.076 36.7977C128.716 42.3846 120.74 52.1384 117.556 52.9201C117.347 52.9716 117.133 52.998 116.918 52.999ZM133.47 24.2684C133.951 24.7058 134.274 25.4302 134.073 25.4661C133.696 25.4093 133.311 25.4908 132.99 25.6956C131.547 26.8379 130.274 28.1807 129.21 29.6831C128.493 30.7302 127.41 29.8194 127.339 28.9014C127.245 27.4097 129.124 23.7376 130.451 23.1065C131.627 22.7551 132.782 23.6014 133.47 24.2684Z" fill="url(#paint3_linear_1402_19880)"/>
<path d="M142.292 38.6338C140.786 40.4339 130.96 50.7543 128.802 51.1057C128.643 51.104 128.486 51.0774 128.335 51.0268C127.396 50.7113 126.012 48.9685 125.983 47.9357C125.854 42.3058 137.358 28.8657 146.832 27.3165C148.782 27.001 151.379 27.4026 151.436 29.8267C151.386 30.7602 151.067 31.6593 150.518 32.4157C150.411 32.4875 150.31 32.4516 150.36 32.4157C150.687 31.8162 150.867 31.1476 150.884 30.465C150.841 28.9159 149.844 28.3134 148.309 28.6577C145.326 29.3031 141.625 32.0858 138.347 35.471C133.557 40.4554 129.856 47.5915 130.329 47.7779C130.39 47.7918 130.453 47.7932 130.515 47.7822C130.577 47.7711 130.635 47.7477 130.688 47.7134C132.373 46.8671 139.452 40.477 142.07 37.766C142.973 36.7906 146.244 32.9895 147.513 32.0285C148.524 31.3113 150.346 33.8932 150.152 34.5458C149.887 34.0725 145.39 40.4626 143.927 44.0199C143.67 44.6018 143.51 45.2221 143.454 45.8559C146.674 44.4215 153.86 36.1164 156.98 32.6022C156.995 32.576 157.016 32.5532 157.041 32.5353C157.065 32.5174 157.094 32.5047 157.123 32.4981C157.153 32.4915 157.184 32.4911 157.214 32.4969C157.244 32.5027 157.272 32.5146 157.297 32.5319C157.322 32.5491 157.344 32.5713 157.36 32.5972C157.376 32.623 157.387 32.6519 157.391 32.682C157.396 32.7122 157.394 32.7429 157.386 32.7724C157.378 32.8018 157.365 32.8293 157.346 32.8532C152.985 38.4903 144.809 48.488 141.725 48.99C141.419 49.0174 141.112 48.9604 140.836 48.825C140.119 48.531 139.108 47.6058 139.086 46.6735C139.132 46.0042 139.254 45.3424 139.452 44.7012C140.129 42.5634 141.084 40.5235 142.292 38.6338Z" fill="url(#paint4_linear_1402_19880)"/>
<path d="M162.811 19.284C164.898 17.8999 170.979 8.87045 170.958 8.15326C170.958 7.89507 171.309 7.62971 171.618 7.57234C172.751 7.39304 174.178 8.81308 174.199 9.79563C174.199 11.2946 167.243 18.8681 162.868 19.5781C162.767 19.5996 162.66 19.4633 162.811 19.284Z" fill="url(#paint5_linear_1402_19880)"/>
<path d="M173.274 31.1032C173.095 32.0141 174.343 32.638 174.874 33.0181C182.992 27.0224 189.547 24.8063 190.222 24.6987C190.322 24.6987 190.53 24.7489 190.537 24.9067C191.003 24.9856 180.877 29.3389 175.354 33.6134C176.071 34.015 177.355 35.306 177.226 36.4176C176.588 39.8888 169.861 43.7329 166.518 44.3067C165.385 44.4932 164.797 43.654 164.51 42.5567C164.611 40.3119 172.069 34.7394 173.834 33.721C173.253 33.0898 170.169 31.7272 170.578 29.4178C171.295 25.3585 178.625 20.2737 183.15 19.535C184.584 19.2983 185.302 21.5646 185.201 23.1209C185.201 23.8381 181.995 27.4814 180.611 27.7109C180.554 27.7109 180.446 27.5245 180.504 27.5173C180.561 27.5101 184.018 23.3145 184.09 22.2675C181.744 22.3535 173.884 28.5644 173.274 31.1032ZM165.837 41.7535C167.831 40.857 174.128 36.5037 174.085 34.5816C171.037 36.8049 167.293 40.0107 165.837 41.7535Z" fill="url(#paint6_linear_1402_19880)"/>
<g clip-path="url(#clip0_1402_19880)">
<path d="M232.798 38.6366C232.877 38.0387 232.954 37.4593 232.95 37.3161C232.958 37.2608 232.965 37.2054 232.973 37.1464C233.185 35.4845 233.158 33.8009 232.89 32.1485C232.176 27.8521 229.948 24.103 228.119 20.2265C226.454 16.6894 224.878 13.1116 223.392 9.49308C222.885 8.2695 222.39 7.03998 221.895 5.81046C221.722 5.37457 221.545 4.94188 221.369 4.50551L221.157 3.99691C221.059 3.75858 221.052 3.81025 220.862 3.95784C219.099 5.32096 217.358 6.7133 215.574 8.04721C212.431 10.3859 209.206 12.6099 205.899 14.719C204.876 15.3725 203.845 16.0161 202.805 16.6499C199.544 18.5586 196.38 20.9383 194.229 24.1201C193.426 25.2807 192.813 26.5642 192.415 27.9212C192.217 28.6871 192.07 29.4658 191.977 30.2516C191.767 31.5084 191.621 32.7751 191.539 34.0466C191.362 38.9349 195.031 42.7693 199.443 44.1557C201.877 44.8919 204.452 45.0221 206.95 44.5351C205.206 46.6819 202.883 48.4629 201.031 50.3851C200.985 50.5609 200.961 50.742 200.96 50.924C200.903 51.3595 200.845 51.795 200.788 52.2305C200.677 52.8416 200.602 53.4586 200.562 54.0783L212.381 57.4157L213.998 57.8921L214.083 57.2425C214.149 56.7442 214.248 56.1377 214.26 56.0491C214.317 55.6136 214.374 55.1817 214.432 54.7462C214.481 54.5697 214.505 54.387 214.503 54.2037C213.976 52.0912 213.225 50.0431 212.683 47.9324C212.464 47.0981 212.293 46.2518 212.171 45.3975C214.23 47.4693 216.834 48.9035 219.675 49.5319C222.131 50.0628 224.694 49.7598 226.967 48.67C229.159 47.5663 230.874 45.6859 231.784 43.3882C232.33 41.8565 232.671 40.2585 232.798 38.6366ZM202.786 16.6812C202.786 16.6749 202.787 16.6687 202.789 16.6627C202.787 16.6687 202.786 16.6749 202.786 16.6812ZM191.824 31.9738C191.574 32.996 191.664 33.1881 191.824 31.9738V31.9738ZM227.517 44.9274C225.271 46.0255 222.733 46.3498 220.291 45.8506C217.42 45.2465 214.784 43.8188 212.699 41.7384C212.632 41.677 212.335 41.3148 212.276 41.3071C212.209 41.5136 212.165 41.7268 212.144 41.943C212.114 42.1718 212.084 42.4006 212.031 42.6303C211.848 43.6005 211.719 44.5801 211.643 45.5645C211.52 46.5477 211.503 47.5412 211.59 48.5278C211.816 50.2829 212.21 52.0113 212.766 53.6888L203.64 51.109C205.8 49.1073 207.876 46.9707 208.651 44.114C208.777 43.5057 208.864 42.8902 208.913 42.271C208.971 41.8355 209.028 41.4 209.086 40.9645C209.089 40.9386 209.105 40.8205 209.12 40.7024L209.157 40.4256C209.157 40.4256 209.154 40.4441 209.153 40.4551C209.151 40.4662 209.157 40.4256 209.157 40.4256C204.419 41.7862 198.882 41.2014 195.16 37.7167C193.591 36.2785 192.533 34.3595 192.148 32.2531C192.093 31.9141 192.058 31.5721 192.041 31.2289C192.373 30.2128 192.825 29.2411 193.39 28.3353C195.521 24.8841 198.882 22.3352 202.32 20.3259C208.26 16.6851 213.98 12.688 219.449 8.35628C219.755 8.11516 220.063 7.87035 220.373 7.63341C220.543 7.49817 220.564 7.42211 220.661 7.64519C220.758 7.86827 220.816 8.01865 220.891 8.20514C221.293 9.18943 221.685 10.1875 222.084 11.1603C223.39 14.3995 224.762 17.6125 226.201 20.7992C227.158 22.9284 228.154 25.0401 229.187 27.1344C230.15 29.0979 231.126 31.018 231.764 33.1076C232.288 34.7702 232.582 36.4986 232.638 38.2438C232.642 38.3569 232.634 38.4723 232.634 38.5849C232.538 38.9177 232.428 39.2449 232.304 39.5665C231.416 41.8871 229.711 43.7965 227.517 44.9274Z" fill="#A22E2E"/>
</g>
<path d="M146.494 71.0507C147.351 69.5955 148.422 68.2778 149.672 67.142C149.966 66.9343 150.324 66.8377 150.683 66.8695C150.876 66.8264 150.482 66.1523 149.966 65.7865C149.248 65.2128 148.029 64.4884 146.939 64.8828C145.734 65.5427 144.343 69.0569 144.594 70.4339C144.78 71.2802 145.942 72.0619 146.494 71.0507Z" fill="url(#paint7_linear_1402_19880)"/>
<path d="M190.114 66.2813C185.811 71.3734 171.955 83.5799 168.426 84.3617C167.365 84.5984 166.877 84.3617 166.841 83.7736C166.946 82.2784 167.425 80.8334 168.233 79.5709C173.633 78.2297 181.931 69.2864 181.508 66.3172C181.314 64.976 178.926 64.3736 178.201 64.5314C176.122 64.9904 172.026 67.4001 168.491 71.6172C167.176 73.1806 166.007 74.861 164.998 76.6375C160.881 81.2849 155.517 86.879 151.981 88.0552C151.558 88.1986 150.547 88.3206 150.468 87.5532C149.98 84.2039 157.912 71.2945 163.076 70.0538C163.506 70.3048 162.065 74.5218 161.405 75.4614C161.326 75.6263 161.584 75.6693 161.67 75.5474C163.105 73.9983 165.206 71.7033 164.948 69.8888C164.84 69.1716 162.961 67.9093 161.85 68.1532C158.414 68.9134 153.889 72.4563 150.475 77.2328C150.274 77.5125 150.095 77.7922 149.908 78.0719C147.111 81.8587 141.639 89.0664 138.993 90.3861C139.287 88.299 144.35 75.9275 146.358 75.6765C146.753 75.6407 147.032 75.8271 147.004 75.6335C146.832 74.4358 144.623 72.9512 143.504 73.2022C143.229 73.259 142.985 73.4179 142.823 73.6469C141.86 74.8508 141.017 76.1455 140.305 77.5125C139.408 78.1626 138.413 78.6661 137.358 79.0043C135.443 79.578 134.123 78.7317 132.99 77.4551C132.822 77.3321 132.629 77.2472 132.424 77.2063C132.22 77.1654 132.009 77.1696 131.806 77.2185C131.183 77.4049 129.942 79.1621 129.863 79.6713C129.784 80.1805 130.429 81.5216 130.731 81.9017C128.185 87.4886 122.375 96.6687 119.507 96.1738C116.638 95.6789 124.427 77.2687 133.205 75.2964C133.542 75.2247 133.922 75.2319 134.431 75.1745C134.625 75.1315 134.776 75.1028 134.51 75.0095C134.13 74.8015 133.284 74.443 131.441 74.8517C125.316 76.2072 118.029 82.9847 115.942 89.633C113.389 92.8891 110.563 96.1881 108.835 97.0774C108.656 94.7968 114.572 83.0636 115.727 81.83C116.229 81.1774 114.293 78.9612 113.195 79.1836C111.553 79.5493 104.058 87.13 99.3752 94.137C102.187 85.5666 108.326 73.7903 112.285 67.436C113.827 64.9689 115.153 63.6492 116.172 63.9074C117.19 64.1656 114.874 61.8276 112.163 62.43C111.493 62.697 110.902 63.1316 110.449 63.6923C108.559 66.0972 106.907 68.6791 105.514 71.4021C101.828 78.3875 96.5996 89.2171 94.864 95.5714C94.656 96.2885 94.4911 96.9699 94.3692 97.5436C81.847 111.17 66.2266 123.692 55.5262 126.059C50.764 127.113 46.7334 126.554 45.5572 121.519C41.7489 104.766 70.4652 65.5068 89.4994 61.2753C93.3364 60.4291 95.9542 61.4833 96.3701 64.2302C97.0873 69.1788 88.1009 76.781 83.8982 77.7062C83.4535 77.3045 84.9812 74.6294 84.8592 74.6581C84.2424 74.7944 81.7251 78.1221 81.9331 79.5924C82.2056 81.4858 83.4894 83.2859 85.0959 82.9273C91.149 81.5862 99.6907 70.9359 98.8157 64.8254C98.0986 60.1207 94.0393 58.6935 88.6675 59.884C67.8331 64.5386 35.5166 101.832 39.8269 122.939C41.2613 130.312 47.4363 131.911 54.0631 130.57C65.9613 128.218 83.597 112.06 94.0895 99.4083C93.9963 99.9323 94.0307 100.471 94.1899 100.979C94.7166 101.658 95.4147 102.186 96.2123 102.507C96.472 102.624 96.7567 102.674 97.0408 102.654C97.325 102.634 97.5997 102.544 97.8404 102.392C96.7072 102.499 96.5136 101.847 96.8148 100.8C97.3637 99.0905 98.1741 97.4768 99.2174 96.016C99.2174 96.016 100.867 93.5847 101.29 93.0468C104.302 89.0234 107.996 85.1936 110.664 83.2715C108.469 86.0758 104.395 94.8757 104.79 97.6153C104.977 98.1907 105.302 98.7113 105.737 99.1315C106.172 99.5517 106.704 99.8585 107.286 100.025C107.535 100.042 107.784 99.9875 108.003 99.8673C108.555 99.5639 109.072 99.2007 109.545 98.7844C111.726 96.6667 113.696 94.3416 115.426 91.842C115.3 92.7317 115.3 93.6346 115.426 94.5243C115.501 94.9991 115.671 95.454 115.925 95.862C116.179 96.2699 116.513 96.6225 116.907 96.8989C117.3 97.1752 117.745 97.3696 118.215 97.4705C118.685 97.5714 119.171 97.5768 119.643 97.4863C124.814 96.64 133.843 87.5388 134.231 80.8833C134.727 80.9288 135.227 80.8851 135.708 80.7542C136.687 80.5385 137.629 80.1809 138.505 79.6928C138.838 79.5016 139.161 79.2933 139.473 79.0688C137.056 83.7521 134.697 89.6832 134.962 91.5336C135.084 92.3942 136.468 93.3194 137.279 93.3911C137.477 93.3859 137.674 93.3594 137.867 93.3122C140.018 92.6596 143.977 87.5747 147.369 82.7695C146.805 84.0828 146.452 85.477 146.322 86.9005C146.271 87.3816 146.31 87.8681 146.437 88.3349C146.752 89.0921 147.316 89.7186 148.036 90.1101C148.757 90.5016 149.59 90.6345 150.396 90.4865C154.556 89.5685 159.719 84.1322 163.7 79.284C163.413 79.9499 163.173 80.6354 162.983 81.3351C162.709 82.4146 162.633 83.5349 162.76 84.6414C162.947 85.9323 165.127 87.2233 166.626 86.8934C173.081 85.459 187.324 70.606 190.473 66.4535C190.623 66.3172 190.25 66.1522 190.114 66.2813ZM179.822 65.6574C179.822 67.5364 172.873 77.0607 168.735 78.4735C169.961 75.5833 174.687 68.5692 179.822 65.6574Z" fill="url(#paint8_linear_1402_19880)"/>
<defs>
<linearGradient id="paint0_linear_1402_19880" x1="46.9422" y1="27.0607" x2="53.0811" y2="44.8426" gradientUnits="userSpaceOnUse">
<stop stop-color="#F3F3F1"/>
<stop offset="1" stop-color="#F0E6C5"/>
</linearGradient>
<linearGradient id="paint1_linear_1402_19880" x1="86.0533" y1="40.8847" x2="88.6826" y2="47.7192" gradientUnits="userSpaceOnUse">
<stop stop-color="#F3F3F1"/>
<stop offset="1" stop-color="#F0E6C5"/>
</linearGradient>
<linearGradient id="paint2_linear_1402_19880" x1="108.727" y1="36.8052" x2="111.792" y2="43.6312" gradientUnits="userSpaceOnUse">
<stop stop-color="#F3F3F1"/>
<stop offset="1" stop-color="#F0E6C5"/>
</linearGradient>
<linearGradient id="paint3_linear_1402_19880" x1="125.01" y1="28.5542" x2="129.791" y2="34.6607" gradientUnits="userSpaceOnUse">
<stop stop-color="#F3F3F1"/>
<stop offset="1" stop-color="#F0E6C5"/>
</linearGradient>
<linearGradient id="paint4_linear_1402_19880" x1="142.597" y1="31.6293" x2="145.226" y2="38.4656" gradientUnits="userSpaceOnUse">
<stop stop-color="#F3F3F1"/>
<stop offset="1" stop-color="#F0E6C5"/>
</linearGradient>
<linearGradient id="paint5_linear_1402_19880" x1="168.8" y1="9.77507" x2="170.435" y2="12.858" gradientUnits="userSpaceOnUse">
<stop stop-color="#F3F3F1"/>
<stop offset="1" stop-color="#F0E6C5"/>
</linearGradient>
<linearGradient id="paint6_linear_1402_19880" x1="178.285" y1="24.0959" x2="181.475" y2="30.7125" gradientUnits="userSpaceOnUse">
<stop stop-color="#F3F3F1"/>
<stop offset="1" stop-color="#F0E6C5"/>
</linearGradient>
<linearGradient id="paint7_linear_1402_19880" x1="147.827" y1="66.017" x2="148.769" y2="67.7159" gradientUnits="userSpaceOnUse">
<stop stop-color="#F3F3F1"/>
<stop offset="1" stop-color="#F0E6C5"/>
</linearGradient>
<linearGradient id="paint8_linear_1402_19880" x1="119.345" y1="72.679" x2="124.667" y2="94.9034" gradientUnits="userSpaceOnUse">
<stop stop-color="#F3F3F1"/>
<stop offset="1" stop-color="#F0E6C5"/>
</linearGradient>
<clipPath id="clip0_1402_19880">
<rect width="41.597" height="54.5064" fill="white" transform="translate(195.88 0.507568) rotate(7.52475)"/>
</clipPath>
</defs>
</svg>
