<svg width="76" height="63" viewBox="0 0 76 63" fill="none" xmlns="http://www.w3.org/2000/svg">
<g filter="url(#filter0_d_1402_19884)">
<path d="M51.1443 7.23722C52.4211 6.74299 53.8832 6.53706 55.5306 6.61943C57.178 6.7018 58.7019 7.11366 60.1022 7.855C61.4613 8.59634 62.5733 9.54361 63.4382 10.6968C67.598 16.2568 66.6919 23.8762 60.72 33.5548C58.0429 37.8381 55.4894 41.1123 53.0595 43.3775C48.9409 47.1666 46.3462 49.0405 45.2754 48.9993C42.8866 48.9581 41.404 48.2168 40.8274 46.7753C41.3628 46.2811 42.0011 45.5809 42.7425 44.6749L45.0283 41.5859C49.5587 35.3669 52.0504 30.3423 52.5035 26.512C48.5085 25.8531 45.9138 23.6702 44.7194 19.9635C43.8545 17.41 44.0604 14.8565 45.3372 12.303C46.5316 9.87309 48.4673 8.18448 51.1443 7.23722ZM20.317 7.23721C21.5937 6.74298 23.0558 6.53706 24.7032 6.61943C26.3507 6.7018 27.8745 7.11366 29.2748 7.855C30.6339 8.59633 31.746 9.5436 32.6109 10.6968C36.7706 16.2568 35.8645 23.8762 29.8926 33.5548C27.2155 37.8381 24.662 41.1123 22.2321 43.3775C18.1135 47.1666 15.5189 49.0405 14.448 48.9993C12.0593 48.9581 10.5766 48.2168 10 46.7753C10.5354 46.2811 11.1738 45.5809 11.9151 44.6749L14.2009 41.5859C18.7313 35.3669 21.2231 30.3423 21.6761 26.512C17.6811 25.8531 15.0864 23.6702 13.892 19.9635C13.0271 17.41 13.2331 14.8565 14.5098 12.303C15.7042 9.87309 17.6399 8.18448 20.317 7.23721Z" fill="#BE9D5D"/>
</g>
<defs>
<filter id="filter0_d_1402_19884" x="0" y="0.601807" width="76" height="62.3982" filterUnits="userSpaceOnUse" color-interpolation-filters="sRGB">
<feFlood flood-opacity="0" result="BackgroundImageFix"/>
<feColorMatrix in="SourceAlpha" type="matrix" values="0 0 0 0 0 0 0 0 0 0 0 0 0 0 0 0 0 0 127 0" result="hardAlpha"/>
<feOffset dy="4"/>
<feGaussianBlur stdDeviation="5"/>
<feComposite in2="hardAlpha" operator="out"/>
<feColorMatrix type="matrix" values="0 0 0 0 0 0 0 0 0 0 0 0 0 0 0 0 0 0 0.25 0"/>
<feBlend mode="normal" in2="BackgroundImageFix" result="effect1_dropShadow_1402_19884"/>
<feBlend mode="normal" in="SourceGraphic" in2="effect1_dropShadow_1402_19884" result="shape"/>
</filter>
</defs>
</svg>
