<svg width="240" height="129" viewBox="0 0 240 129" fill="none" xmlns="http://www.w3.org/2000/svg">
<g clip-path="url(#clip0_1402_19945)">
<path d="M71.2337 69.0029C70.6599 69.1555 70.1442 69.3007 69.6213 69.3951C64.1016 70.3538 60.1796 67.2599 60.0489 60.825C59.7874 50.0179 69.6504 31.5486 73.9645 26.1305C66.5491 31.1273 46.9976 57.5785 47.1356 63.1201C47.1356 64.1877 43.5042 62.9022 43.4679 60.6071C43.3299 54.9566 54.827 30.9167 58.7198 26.0869C51.5805 31.5413 41.3689 43.997 34.1279 54.0851C27.4534 63.6212 24.1996 69.584 24.2359 71.1527C24.2359 71.879 27.3371 69.5404 27.141 69.8019C25.9357 71.563 24.1528 72.8476 22.1006 73.4333C21.8655 73.4436 21.6308 73.4048 21.4115 73.3194C21.1922 73.2339 20.9931 73.1036 20.827 72.9368C20.6609 72.77 20.5314 72.5704 20.4469 72.3508C20.3623 72.1311 20.3244 71.8962 20.3358 71.6611C20.1615 64.4927 46.0099 25.9852 45.821 18.0397C45.7557 15.4033 43.3517 15.3743 41.4198 15.7083C26.7997 18.2576 3.42068 48.7615 3.50783 52.2549C3.50825 52.3851 3.53835 52.5136 3.59584 52.6304C3.65334 52.7473 3.73673 52.8495 3.83965 52.9293C3.94258 53.0092 4.06233 53.0645 4.18983 53.0911C4.31733 53.1177 4.44921 53.1148 4.57547 53.0828C5.44764 52.8611 6.29834 52.5622 7.11745 52.1895C7.11745 52.6906 4.03803 54.579 2.83966 54.7896C1.16921 55.0801 0.0434731 53.8672 -0.000103818 52.1895C-0.217988 43.1763 25.7756 17.0157 41.3544 14.3066C46.3004 13.4496 49.0239 15.6793 49.1329 20.2694C49.2636 25.5858 40.9404 40.6053 34.2586 51.8627C48.7843 31.1709 61.8574 18.6788 64.2032 18.2721C65.8664 17.9816 68.619 19.2453 68.9314 21.4387C68.7135 21.1409 68.1397 21.1264 67.7765 21.1918C65.6921 21.5549 53.0621 44.3239 47.949 57.8037C58.117 36.8141 81.8519 12.7306 85.3453 12.1278C87.1102 11.8155 89.6304 14.3575 89.8701 15.6139C89.3308 15.4307 88.749 15.413 88.1996 15.5631C83.5078 16.3765 63.1065 48.5944 63.4116 61.4205C63.5423 66.795 65.7866 68.5962 71.3499 67.4632L71.2337 69.0029Z" fill="url(#paint0_linear_1402_19945)"/>
<path d="M86.8707 44.5127C85.3455 46.3357 75.4027 56.7796 73.2166 57.1355C73.0533 57.1373 72.8911 57.1102 72.7373 57.0556C71.7931 56.7433 70.3913 54.9784 70.3623 53.9326C70.2243 48.2313 81.8739 34.6208 91.4608 33.052C93.4435 32.7252 96.0655 33.1391 96.1236 35.594C96.0742 36.5395 95.7512 37.4504 95.1939 38.2158C95.0922 38.2812 94.9906 38.2158 95.0414 38.2158C95.3727 37.6093 95.5521 36.9314 95.5643 36.2404C95.5643 34.6716 94.5185 34.0615 92.957 34.4101C89.9429 35.0638 86.188 37.8818 82.8762 41.3098C78.0246 46.3938 74.277 53.584 74.7491 53.7655C74.8114 53.783 74.8767 53.7869 74.9406 53.7769C75.0045 53.7669 75.0655 53.7432 75.1194 53.7074C76.8189 52.8504 83.9874 46.372 86.6456 43.6339C87.5607 42.6389 90.8652 38.7969 92.1508 37.8237C93.1821 37.0974 95.0559 39.7192 94.8307 40.3802C94.5548 39.9008 90.0082 46.3647 88.5194 49.9671C88.2601 50.559 88.1006 51.1897 88.0473 51.8336C91.301 50.3811 98.5784 41.9707 101.738 38.4119C101.753 38.3854 101.774 38.3623 101.799 38.3441C101.824 38.326 101.853 38.3132 101.883 38.3065C101.913 38.2998 101.944 38.2994 101.975 38.3053C102.005 38.3112 102.034 38.3232 102.059 38.3407C102.084 38.3582 102.106 38.3807 102.122 38.4068C102.139 38.433 102.15 38.4622 102.154 38.4928C102.159 38.5233 102.157 38.5544 102.149 38.5842C102.141 38.6141 102.127 38.6419 102.108 38.6661C97.6996 44.3747 89.4199 54.4918 86.2897 55.0075C85.9815 55.0324 85.6725 54.9721 85.3964 54.8332C84.6701 54.5354 83.6387 53.5985 83.617 52.6543C83.6673 51.9747 83.7915 51.3025 83.9874 50.6498C84.6804 48.4885 85.6495 46.4258 86.8707 44.5127Z" fill="url(#paint1_linear_1402_19945)"/>
<path d="M106.473 30.9603C106.672 30.7642 106.925 30.6326 107.199 30.5826C108.448 30.372 110.475 32.0933 110.511 33.3933C110.511 33.6039 110.351 33.3933 109.937 33.3933C109.153 33.4659 107.374 35.8046 105.863 38.1505C104.505 40.2639 102.74 43.0238 101.694 45.1373C104.367 41.0774 109.472 35.8336 113.874 31.8536C115.871 30.0597 117.411 28.9485 118.5 28.6289C119.074 28.4836 121.267 30.3865 120.911 30.8586C119.793 32.2531 115.559 36.7778 113.939 41.1355C116.438 40.5181 119.975 37.5767 123.134 34.1704C123.185 34.1123 123.497 34.0107 123.548 34.1051C122.647 35.5068 116.539 42.3847 112.908 42.9512C111.971 43.1037 110.366 41.4986 110.351 40.9031C110.351 39.4505 111.905 36.1314 113.256 34.3665C109.21 37.3372 105.644 40.9109 102.682 44.963C100.096 48.2748 97.0821 53.3879 98.2369 53.722C96.7335 54.3393 95.4479 52.9231 95.0485 51.5431C95.0369 50.5653 95.2877 49.6022 95.7748 48.7542C97.3297 45.1007 99.173 41.5768 101.287 38.2158C102.761 35.6247 104.498 33.1932 106.473 30.9603Z" fill="url(#paint2_linear_1402_19945)"/>
<path d="M118.435 49.6838C117.592 49.5604 116.256 48.4637 116.256 47.505C116.176 44.4764 123.461 31.8391 126.729 28.6216C126.926 28.3847 127.202 28.2272 127.506 28.1786C128.704 27.9825 130.84 29.7329 130.869 31.0402C130.869 31.2508 130.607 31.0402 130.186 31.0402C128.044 31.1782 121.195 44.273 120.621 46.5173C123.78 45.1591 131.21 36.6471 134.319 33.0447C134.675 32.7179 134.943 33.0955 134.791 33.2771C130.382 38.9349 122.299 48.8123 119.074 49.604C118.865 49.6558 118.65 49.6826 118.435 49.6838ZM135.205 20.589C135.684 21.032 136.018 21.7655 135.808 21.8019C135.428 21.7448 135.041 21.8274 134.718 22.0343C133.255 23.1892 131.966 24.5492 130.891 26.0724C130.164 27.1328 129.06 26.2104 128.988 25.2807C128.901 23.7701 130.796 20.0515 132.14 19.4124C133.338 19.0565 134.508 19.9135 135.205 20.589Z" fill="url(#paint3_linear_1402_19945)"/>
<path d="M144.138 35.1364C142.613 36.9594 132.67 47.4033 130.477 47.7664C130.316 47.7641 130.157 47.7372 130.005 47.6866C129.06 47.367 127.651 45.6021 127.63 44.5563C127.492 38.8622 139.141 25.2444 148.692 23.6757C150.675 23.3561 153.296 23.7628 153.355 26.2177C153.307 27.1636 152.984 28.0751 152.425 28.8395C152.323 28.9122 152.214 28.8758 152.265 28.8395C152.603 28.2353 152.785 27.5564 152.795 26.864C152.759 25.2953 151.749 24.6852 150.188 25.0338C147.167 25.6875 143.419 28.5054 140.1 31.9335C135.256 36.9812 131.508 44.2077 131.98 44.3965C132.042 44.411 132.106 44.4126 132.168 44.4014C132.231 44.3902 132.29 44.3662 132.343 44.3311C134.05 43.4741 141.218 37.0029 143.869 34.2576C144.792 33.2699 148.096 29.4206 149.382 28.4473C150.413 27.7211 152.287 30.3357 152.062 30.9966C151.786 30.5172 147.232 36.9884 145.75 40.5908C145.492 41.181 145.331 41.8087 145.271 42.4501C148.532 40.9975 155.809 32.5872 158.969 29.0284C158.984 29.0018 159.005 28.9787 159.03 28.9606C159.055 28.9424 159.084 28.9296 159.114 28.923C159.144 28.9163 159.175 28.9159 159.205 28.9217C159.236 28.9276 159.265 28.9397 159.29 28.9571C159.315 28.9746 159.337 28.9971 159.353 29.0233C159.37 29.0494 159.381 29.0787 159.385 29.1092C159.39 29.1397 159.388 29.1708 159.38 29.2007C159.372 29.2305 159.358 29.2584 159.339 29.2826C154.931 34.9911 146.644 45.1155 143.521 45.6239C143.213 45.6519 142.904 45.594 142.627 45.4569C141.901 45.1591 140.87 44.2222 140.848 43.278C140.898 42.6007 141.022 41.9309 141.218 41.2807C141.921 39.1148 142.903 37.0494 144.138 35.1364Z" fill="url(#paint4_linear_1402_19945)"/>
<path d="M164.91 15.534C167.023 14.1396 173.189 4.99569 173.189 4.26214C173.189 4.00068 173.538 3.73196 173.85 3.68112C174.998 3.49955 176.443 4.93758 176.472 5.93259C176.472 7.45052 169.42 15.1201 164.99 15.8391C164.866 15.8609 164.757 15.7229 164.91 15.534Z" fill="url(#paint5_linear_1402_19945)"/>
<path d="M175.513 27.5104C175.325 28.4328 176.596 29.0647 177.126 29.4496C185.347 23.3779 191.993 21.1337 192.668 21.0247C192.77 21.0247 192.98 21.0756 192.988 21.2354C193.46 21.3153 183.212 25.7238 177.612 30.0524C178.302 30.4591 179.639 31.7665 179.515 32.8922C178.862 36.4074 172.056 40.3003 168.665 40.8813C167.524 41.0701 166.929 40.2204 166.638 39.1092C166.74 36.8359 174.293 31.1927 176.08 30.1614C175.484 29.5222 172.369 28.1423 172.783 25.8037C173.509 21.6929 180.924 16.5436 185.507 15.7955C186.96 15.5558 187.686 17.8509 187.584 19.4269C187.548 20.1532 184.345 23.8427 182.936 24.0751C182.885 24.0751 182.776 23.8863 182.827 23.879C182.987 23.879 186.386 19.623 186.458 18.5626C184.084 18.6498 176.131 24.9394 175.513 27.5104ZM167.975 38.2957C169.994 37.3879 176.378 32.9793 176.327 31.0329C173.247 33.2844 169.449 36.5309 167.975 38.2957Z" fill="url(#paint6_linear_1402_19945)"/>
<path d="M238.504 18.8364C238.746 10.4973 229.621 -2.51636 220.222 2.2473C215.235 4.77229 214.859 9.83472 216.471 14.6813C216.217 14.8252 215.972 14.9844 215.737 15.1579C215.391 15.4233 215.16 15.8101 215.093 16.2389C215.093 16.2389 215.093 16.2389 215.098 16.1952L215.086 16.295C215.07 16.4384 215.051 16.5942 215.032 16.7563C215.013 16.9184 215.005 16.9932 214.989 17.1242C209.818 20.3397 204.653 23.5643 199.492 26.798L190.138 32.6539C189.448 33.0912 188.757 33.5348 188.068 33.9534C187.855 34.0642 187.661 34.2079 187.494 34.3791C186.937 34.9978 186.633 35.8005 186.642 36.6303C186.58 37.1665 186.585 37.7085 186.658 38.2437C186.893 39.8892 187.949 41.9531 189.413 42.0046C189.906 41.9585 190.373 41.7691 190.756 41.4603L193.215 39.9979C193.194 40.1787 193.177 40.3283 193.169 40.3907L193.041 41.4879C193.029 41.5876 192.951 41.8693 192.987 41.9492L194.542 44.4951L195.685 46.3669C195.759 46.4957 196.104 47.2629 196.247 47.2986C196.389 47.3343 196.828 46.9748 196.931 46.9111L198.668 45.8886L201.353 44.3072C201.517 44.2127 201.511 42.9606 201.536 42.7486C201.578 42.387 201.621 42.0192 201.664 41.6514C201.675 41.5578 201.754 41.27 201.718 41.19L201.53 40.8899L202.06 40.5665C202.218 40.4712 202.518 40.203 202.707 40.1746C202.895 40.1461 202.715 40.0998 202.877 40.1945C203.038 40.2893 203.252 40.8135 203.36 40.9842L203.892 41.8935C203.951 41.9889 204.148 42.4416 204.251 42.4853C204.355 42.5291 204.719 42.2558 204.877 42.1668L206.675 41.1135L209.347 39.5306C209.518 39.4306 209.505 38.1778 209.529 37.972C209.573 37.6042 209.616 37.2364 209.659 36.8686C209.67 36.775 209.748 36.4872 209.712 36.4135L206.903 31.7995L215.995 26.1656L217.788 25.0423C217.961 24.936 217.946 23.6957 217.971 23.4837C217.996 23.2717 217.962 22.0291 218.153 21.9251L205.69 29.7109L203.897 30.8342C203.724 30.9404 203.483 33.8761 203.532 33.9514C203.692 34.2167 203.965 34.9438 204.222 35.094C204.48 35.2442 204.953 34.7499 205.166 34.6232C205.379 34.4964 205.914 34.0788 206.078 34.098C206.242 34.1172 206.432 34.6767 206.484 34.7776C207.02 35.6557 207.556 36.54 208.092 37.4181L207.083 38.014L205.285 39.0673C205.127 39.1563 204.801 39.4278 204.659 39.3858C204.517 39.3439 204.349 38.8692 204.3 38.794L203.767 37.8847C203.649 37.6939 203.49 37.2518 203.301 37.1222C203.269 37.1034 203.242 37.0787 203.22 37.0495C203.22 37.0495 203.22 37.0495 203.114 37.0813C202.919 37.109 202.631 37.3787 202.467 37.4732L201.561 37.9991L200.288 38.7726C200.123 38.8733 200.131 40.1192 200.106 40.3312C200.063 40.699 200.019 41.0668 199.976 41.4347C199.965 41.5282 199.887 41.816 199.923 41.8898L200.095 42.169L199.152 42.6905L197.347 43.743C197.238 43.806 196.787 44.1577 196.663 44.1305C196.538 44.1033 196.17 43.3144 196.101 43.1988L194.995 41.3945C194.919 41.2109 194.868 41.0178 194.845 40.8208C194.845 40.8208 195.252 37.7844 195.21 37.7037C195.01 37.3061 194.777 36.9257 194.512 36.5665C194.286 36.3125 194.35 36.3705 194.013 36.5712L191.182 38.2556C190.797 38.568 190.331 38.7673 189.836 38.831C189.515 38.7977 189.205 38.6945 188.928 38.5288C188.651 38.3631 188.415 38.1389 188.236 37.8724C188.018 37.6055 187.827 37.3186 187.665 37.0155C188.171 36.6697 188.695 36.3493 189.235 36.0556L195.487 32.1178L211.151 22.2739L214.905 19.914C215.07 19.8133 215.08 18.7464 215.08 18.424C215.658 17.746 216.714 17.3515 217.403 16.9267C219.021 20.3583 220.983 23.034 223.29 24.7326C224.28 25.4489 227.11 26.4441 226.118 25.7465C221.301 22.3444 215.86 13.0234 218.362 6.99674C220.667 1.45254 227.124 3.13807 230.746 6.26736C233.922 9.03179 235.975 12.8418 236.522 16.9863C237.005 21.7007 234.89 26.275 232.304 30.0735C226.897 38.0288 223.421 41.6725 216.029 48.0237C215.105 48.8192 211.819 51.7648 212.805 51.0461C220.304 45.5227 227.594 39.8294 233.091 32.2513C235.955 28.3209 238.366 23.7245 238.504 18.8364Z" fill="#A22E2E"/>
<path d="M234.553 22.166C235.079 21.2729 235.389 20.2708 235.458 19.2384C235.526 18.2059 235.353 17.1711 234.95 16.215C234.616 15.24 234.086 14.3417 233.392 13.5748C232.697 12.8078 231.852 12.1882 230.908 11.7536C231.086 8.10892 228.407 4.07893 224.506 3.92529C223.527 3.89449 222.556 4.11629 221.691 4.5689C220.825 5.02151 220.094 5.68935 219.569 6.50681C219.046 7.40124 218.739 8.40351 218.671 9.43575C218.603 10.468 218.777 11.5024 219.179 12.4586C219.509 13.4342 220.037 14.3333 220.731 15.1004C221.425 15.8675 222.27 16.4865 223.214 16.9192C223.096 20.5962 225.738 24.6218 229.648 24.7512C230.623 24.7781 231.588 24.5539 232.447 24.1007C233.307 23.6475 234.033 22.9808 234.553 22.166ZM231.491 21.0173C230.759 21.4855 229.914 21.7547 229.041 21.7978C228.169 21.8409 227.3 21.6565 226.521 21.2629C225.853 20.973 225.307 20.4621 224.977 19.8181C224.747 18.9375 224.84 18.0054 225.241 17.1883C225.315 16.8892 225.326 16.5778 225.271 16.2742C225.216 15.9706 225.098 15.6815 224.923 15.4257C224.776 15.0026 224.469 14.6519 224.066 14.4469C223.994 14.4103 223.911 14.4006 223.833 14.4195C222.452 14.2577 220.592 13.5469 220.374 12.0235C220.298 11.1589 220.467 10.2909 220.861 9.51678C221.255 8.74265 221.86 8.09285 222.607 7.64007C223.341 7.17485 224.186 6.90748 225.058 6.86441C225.929 6.82133 226.798 7.00404 227.577 7.39447C228.264 7.69285 228.821 8.22443 229.147 8.89289C229.376 9.77179 229.28 10.7018 228.878 11.5157C228.746 12.0443 228.825 12.6032 229.098 13.0772C229.265 13.4507 229.652 14.2355 230.139 14.2799C231.532 14.3988 233.519 15.1183 233.749 16.6937C233.814 17.5551 233.637 18.4168 233.238 19.184C232.839 19.9512 232.234 20.5942 231.488 21.0423L231.491 21.0173Z" fill="#A22E2E"/>
<path d="M47.4698 123.888C61.6758 120.903 88.4175 100.792 87.1538 91.9825C86.6309 88.3511 81.4307 87.2254 75.4244 86.8985C68.0744 86.4628 59.911 87.0946 59.1702 81.9526C57.7612 72.1477 75.6786 60.3239 84.2414 58.2249C89.5796 56.9249 93.3563 57.4551 93.9446 61.958C94.8306 68.9303 85.6504 78.6189 79.4189 79.9335C78.2423 80.1804 76.4048 80.086 76.2232 78.8005C75.8746 76.4038 77.8138 73.4115 78.896 72.4601C78.2644 73.4374 77.9804 74.5989 78.0898 75.7574C78.1406 76.106 78.4965 76.0334 78.8161 75.9607C81.2346 75.4523 91.7947 66.5191 91.7947 61.0284C91.7947 59.0965 90.1534 58.9076 87.9164 59.3724C87.2628 59.5104 86.5074 59.7283 85.7376 59.9535C78.3077 62.3502 62.3585 75.6266 63.2228 81.6403C63.7094 85.0247 69.5778 85.2717 75.7657 85.6784C82.6872 86.0924 89.8991 86.8041 90.8288 93.2826C92.6663 106.065 65.1039 124.723 49.0167 128.108C45.1239 128.921 39.3063 129.001 38.6454 124.389C37.4035 115.754 62.0389 96.2022 69.6722 94.7787C54.6527 102.267 41.536 118.31 42.1534 122.632C42.5092 124.869 45.5814 124.295 47.4698 123.888Z" fill="url(#paint7_linear_1402_19945)"/>
<path d="M201.514 50.737C194.724 50.737 184.933 52.4365 177.547 54.3684C179.203 51.3325 181.404 47.1055 182.972 47.4832C183.924 47.8028 181.694 45.5368 179.13 46.2195C178.503 46.4976 177.959 46.9359 177.554 47.4905C176.537 48.6453 175.455 50.3956 172.521 55.7991C167.437 57.4769 162.549 59.8227 163.029 61.8418C163.215 62.4168 163.592 62.9107 164.099 63.2411C164.605 63.5715 165.209 63.7185 165.81 63.6575C164.51 63.229 166.914 60.4619 171.177 58.668C169.79 61.268 168.744 63.5631 167.764 65.6984C166.515 68.48 165.512 70.855 164.714 72.8813C160.465 77.7111 154.074 84.342 151.045 84.9812C150.028 85.1918 149.592 84.9812 149.534 84.4001C149.634 82.978 150.091 81.6041 150.863 80.4056C156.013 79.1782 163.936 70.7388 163.522 67.9063C163.334 66.628 161.06 66.0179 160.37 66.1705C158.388 66.5844 154.48 68.865 151.103 72.8232C150.435 73.6148 149.803 74.4428 149.229 75.2708C147.05 77.791 144.646 79.8536 142.78 80.4056C143.797 76.52 147.138 72.3802 148.009 71.1164C148.278 70.6807 146.106 69.1192 145.605 69.2717C144.646 69.5622 143.375 70.6298 141.756 72.2857C138.197 75.9535 134.137 80.7615 132.14 84.4292C133.042 82.28 134.057 80.1805 135.183 78.1396C136.309 76.0261 137.667 73.9054 138.364 73.7819C138.742 73.7456 138.909 73.9489 138.887 73.7819C138.72 72.6344 136.708 71.2254 135.604 71.4578C135.366 71.5131 135.151 71.6398 134.987 71.8209C133.443 73.8616 132.128 76.0658 131.065 78.3938C130.789 78.9603 130.506 79.5558 130.222 80.1586C126.184 84.7415 120.338 91.0529 116.612 92.2585C116.205 92.3892 115.268 92.4909 115.159 91.7646C114.702 88.5617 122.262 76.3384 127.187 75.2054C127.601 75.4523 126.228 79.4542 125.596 80.3402C125.523 80.5 125.77 80.5436 125.85 80.4346C127.208 78.9821 129.22 76.8032 128.973 75.0674C128.879 74.3847 127.085 73.1573 126.025 73.3824C122.749 74.0724 118.428 77.4206 115.174 81.9235C114.883 82.3157 114.615 82.7152 114.353 83.1146C110.119 87.9734 103.459 94.9821 100.314 95.6357C99.3046 95.8463 98.8616 95.6357 98.8035 95.0547C98.9035 93.6326 99.3606 92.2587 100.133 91.0602C105.282 89.8327 113.206 81.3933 112.792 78.5608C112.603 77.2826 110.33 76.6798 109.64 76.825C107.657 77.239 103.749 79.5195 100.372 83.4778C97.8157 86.5064 95.8765 89.8836 95.143 92.7161C94.8813 93.7452 94.81 94.8134 94.9324 95.8681C95.1067 97.1028 97.1911 98.3593 98.6219 98.047C103.263 97.0738 108.928 90.7406 112.712 86.0125C111.902 87.5998 111.395 89.3237 111.216 91.0965C111.16 91.5635 111.195 92.0368 111.317 92.4909C111.616 93.2183 112.151 93.8238 112.837 94.2098C113.522 94.5959 114.317 94.74 115.094 94.6189C119.611 93.6675 125.371 87.1455 129.286 82.214C128.457 84.0363 127.758 85.9148 127.194 87.8355C126.844 88.6108 126.72 89.4695 126.838 90.3121C127.339 91.525 128.654 92.7088 129.946 92.106C128.864 91.8663 131.058 87.2617 133.048 84.2549C135.307 80.5673 138.161 77.2788 141.494 74.5227C140.485 76.1496 139.388 79.1055 139.577 80.3838C139.657 80.9358 141.269 82.2431 142.097 82.0688C143.775 81.7202 145.903 79.8028 147.639 77.8926C146.888 79.2069 146.305 80.6098 145.903 82.0688C145.641 83.0979 145.57 84.1661 145.692 85.2208C145.867 86.4555 147.951 87.712 149.382 87.3997C154.27 86.3756 160.276 79.4106 164.067 74.6098C162.535 78.6843 162.005 80.9793 162.128 81.8727C162.201 82.3738 162.31 82.4464 162.368 82.5263C162.869 83.1731 163.533 83.6746 164.292 83.9789C164.535 84.0778 164.798 84.1175 165.06 84.0947C165.321 84.072 165.573 83.9875 165.796 83.8482C168.062 82.4755 173.487 74.7987 176.131 70.7751C176.959 71.9444 178.68 72.6344 179.123 73.0266C177.598 74.007 171.366 79.2726 171.512 81.2626C171.882 82.2213 172.507 82.933 173.523 82.7152C176.523 82.0833 182.239 78.3575 182.486 75.278C182.486 74.2903 181.142 73.2081 180.481 72.874C185.079 68.8504 193.881 64.5508 193.445 64.5C193.445 64.362 193.227 64.3112 193.133 64.333C192.53 64.4564 186.771 66.7006 179.98 72.3656C179.457 72.0533 178.244 71.5522 178.317 70.7388C178.607 68.4655 185.137 62.6189 187.286 62.3575C187.286 63.2944 184.694 67.1437 184.556 67.1727C184.418 67.2018 184.628 67.3398 184.672 67.3325C185.921 67.071 188.434 63.7011 188.39 63.0692C188.332 61.7111 187.432 59.7356 186.139 60.0116C182.079 60.8613 175.927 65.6838 175.688 69.3153C175.67 69.6231 175.722 69.931 175.84 70.2158C172.993 73.9489 167.597 81.1101 165.81 81.2771C166.493 78.1178 169.122 71.5885 172.267 64.7106C173.719 61.6312 174.925 59.0238 176.327 56.5617C184.481 53.7209 192.931 51.8131 201.514 50.8749C202.095 50.8023 201.899 50.7515 201.514 50.737ZM161.91 67.2526C161.91 69.0465 155.286 78.0597 151.343 79.3597C152.512 76.6144 157.029 69.9689 161.91 67.2526ZM111.15 77.9144C111.15 79.7084 104.527 88.7215 100.583 90.0216C101.752 87.2544 106.27 80.6307 111.15 77.9144ZM172.616 80.5363C174.654 78.0764 176.923 75.8171 179.392 73.7892C179.646 75.5322 174.344 79.6575 172.616 80.5363Z" fill="url(#paint8_linear_1402_19945)"/>
</g>
<defs>
<linearGradient id="paint0_linear_1402_19945" x1="47.5359" y1="23.4167" x2="53.7526" y2="41.424" gradientUnits="userSpaceOnUse">
<stop stop-color="#F3F3F1"/>
<stop offset="1" stop-color="#F0E6C5"/>
</linearGradient>
<linearGradient id="paint1_linear_1402_19945" x1="87.1793" y1="37.4159" x2="89.842" y2="44.3371" gradientUnits="userSpaceOnUse">
<stop stop-color="#F3F3F1"/>
<stop offset="1" stop-color="#F0E6C5"/>
</linearGradient>
<linearGradient id="paint2_linear_1402_19945" x1="110.123" y1="33.2793" x2="113.219" y2="40.1883" gradientUnits="userSpaceOnUse">
<stop stop-color="#F3F3F1"/>
<stop offset="1" stop-color="#F0E6C5"/>
</linearGradient>
<linearGradient id="paint3_linear_1402_19945" x1="126.631" y1="24.9291" x2="131.473" y2="31.1138" gradientUnits="userSpaceOnUse">
<stop stop-color="#F3F3F1"/>
<stop offset="1" stop-color="#F0E6C5"/>
</linearGradient>
<linearGradient id="paint4_linear_1402_19945" x1="144.427" y1="28.0431" x2="147.093" y2="34.9632" gradientUnits="userSpaceOnUse">
<stop stop-color="#F3F3F1"/>
<stop offset="1" stop-color="#F0E6C5"/>
</linearGradient>
<linearGradient id="paint5_linear_1402_19945" x1="170.99" y1="5.91178" x2="172.645" y2="9.03709" gradientUnits="userSpaceOnUse">
<stop stop-color="#F3F3F1"/>
<stop offset="1" stop-color="#F0E6C5"/>
</linearGradient>
<linearGradient id="paint6_linear_1402_19945" x1="180.584" y1="20.4143" x2="183.814" y2="27.114" gradientUnits="userSpaceOnUse">
<stop stop-color="#F3F3F1"/>
<stop offset="1" stop-color="#F0E6C5"/>
</linearGradient>
<linearGradient id="paint7_linear_1402_19945" x1="67.906" y1="70.6923" x2="78.5396" y2="87.1121" gradientUnits="userSpaceOnUse">
<stop stop-color="#F3F3F1"/>
<stop offset="1" stop-color="#F0E6C5"/>
</linearGradient>
<linearGradient id="paint8_linear_1402_19945" x1="151.475" y1="55.6848" x2="155.436" y2="71.799" gradientUnits="userSpaceOnUse">
<stop stop-color="#F3F3F1"/>
<stop offset="1" stop-color="#F0E6C5"/>
</linearGradient>
<clipPath id="clip0_1402_19945">
<rect width="239.818" height="128" fill="white" transform="translate(0 0.5)"/>
</clipPath>
</defs>
</svg>
