<svg width="277" height="161" viewBox="0 0 277 161" fill="none" xmlns="http://www.w3.org/2000/svg">
<g clip-path="url(#clip0_189_8326)">
<path d="M82.4072 93.3842C81.7941 93.5692 81.1715 93.7206 80.542 93.8379C74.1564 94.947 69.6193 91.3761 69.4764 83.9235C69.174 71.4213 80.5756 50.0633 85.5664 43.7954C76.9963 49.576 54.378 80.1678 54.5292 86.587C54.5292 87.8137 50.3282 86.3349 50.2862 83.6799C50.1265 77.1347 63.4354 49.3323 67.9305 43.7366C59.6712 50.0549 47.858 64.4644 39.4896 76.1264C31.7681 87.1583 27.9956 94.0564 28.046 95.8712C28.046 96.7114 31.6253 94.0144 31.4068 94.3168C30.011 96.3492 27.953 97.834 25.5842 98.5179C25.3111 98.5299 25.0384 98.4848 24.7837 98.3854C24.529 98.2861 24.2978 98.1348 24.1048 97.9411C23.9119 97.7473 23.7615 97.5155 23.6632 97.2604C23.565 97.0053 23.521 96.7324 23.5341 96.4594C23.3325 88.1749 53.2437 43.6273 53.0168 34.4271C52.9412 31.3856 50.1601 31.352 47.9336 31.7385C31.0539 34.6624 4.01618 69.9341 4.1086 74.0091C4.10909 74.1598 4.14388 74.3084 4.21039 74.4436C4.27691 74.5788 4.37338 74.697 4.49244 74.7894C4.61151 74.8817 4.75007 74.9457 4.89757 74.9765C5.04507 75.0072 5.19762 75.004 5.34367 74.9669C6.35245 74.7134 7.33659 74.3704 8.28439 73.9419C8.28439 74.5216 4.72191 76.7062 3.33557 76.9414C1.41151 77.2775 0.10082 75.8828 0.0588102 73.9335C-0.193251 63.5066 29.8776 33.2424 47.8916 30.1169C53.6134 29.1254 56.7642 31.6965 56.8902 37.0065C57.0414 43.1652 47.4127 60.5322 39.6828 73.5638C56.4869 49.6264 71.6106 35.1665 74.3244 34.696C76.2569 34.3599 79.4329 35.8303 79.8026 38.3677C79.5505 38.0148 78.8867 38.0064 78.4582 38.0736C76.0468 38.4937 61.4357 64.8425 55.5207 80.4367C67.2835 56.1464 94.7414 28.2936 98.7828 27.5879C100.833 27.235 103.748 30.1757 104.026 31.6208C103.398 31.4135 102.723 31.3959 102.085 31.5704C96.6654 32.5115 73.0557 69.7829 73.417 84.6125C73.5682 90.83 76.1561 92.9221 82.6004 91.603L82.4072 93.3842Z" fill="url(#paint0_linear_189_8326)"/>
<path d="M89.1457 74.7402C89.1457 75.3871 89.717 75.656 90.8933 75.4039C94.7834 74.5637 103.496 65.187 108.252 59.6165C108.403 59.4736 108.815 59.6585 108.672 59.8517C105.202 64.3972 96.069 76.723 88.9272 78.2186C87.2468 78.5631 84.869 77.1095 84.6589 75.698C84.5173 74.4778 84.5999 73.242 84.9026 72.0515C85.7428 68.7663 87.9945 64.8677 90.9605 61.3557C94.8674 56.7766 99.3625 54.1383 101.673 53.6594C102.513 53.4914 105.11 54.1888 105.32 55.6759C105.79 58.9527 96.6319 68.7159 90.6832 70.1274C89.7856 71.5086 89.2563 73.0966 89.1457 74.7402ZM91.221 68.9091C95.7917 67.4052 103.421 56.9782 103.454 54.9029C97.7997 58.0537 92.5821 65.7416 91.221 68.9091Z" fill="url(#paint1_linear_189_8326)"/>
<path d="M126.711 67.1867C126.274 64.1704 130.828 54.1216 133.24 50.996C124.476 59.7005 120.242 70.0098 118.746 70.3207C117.998 70.4803 116.041 69.1444 115.889 68.0858C115.604 66.0777 118.62 57.6 121.771 53.6258C116.839 57.9781 112.587 63.994 109.319 69.1444C108.554 70.3459 108.059 71.1525 107.756 71.707C106.513 73.7655 106.395 74.883 107.252 75.0679C105.706 75.7736 104.085 74.4209 103.438 73.0346C103.278 72.6901 103.286 71.2113 104.328 68.4891C106.082 63.5078 108.302 58.703 110.957 54.1384C111.474 53.2481 112.067 52.4046 112.73 51.6178C112.896 51.4105 113.127 51.2654 113.386 51.2061C114.721 50.9288 117.049 52.5672 117.242 53.8863C117.242 54.0964 117.015 53.8863 116.587 53.8863C116.158 53.8863 115.528 54.6005 114.957 55.5667C112.519 59.8738 110.331 64.3174 108.403 68.8755C111.167 63.6579 121.225 50.9288 123.392 49.9794C123.487 49.9185 123.592 49.8784 123.703 49.8617C124.779 49.6349 126.913 51.9118 126.459 52.5504C124.149 55.9784 120.435 64.5989 120.704 66.4473C124.812 59.104 133.55 47.1899 135.827 46.7194C137.004 46.4757 139.188 48.9627 138.566 49.6853C137.382 51.0296 130.702 64.246 131.005 66.5734C134.365 65.0526 141.087 55.9616 144.036 52.0211C144.372 51.6766 144.7 52.0211 144.566 52.2311C140.642 58.2302 133.097 68.9091 129.946 69.5729C128.644 69.8754 126.812 68.1866 126.711 67.1867Z" fill="url(#paint2_linear_189_8326)"/>
<path d="M145.196 56.3733C148.624 50.4246 156.958 41.2496 160.017 41.6613C160.697 41.7957 162.848 43.4089 162.958 44.1819C163.647 48.9375 155.135 63.9603 147.767 65.5147C145.683 65.9516 143.137 65.0694 142.885 63.3218C142.885 63.0613 143.045 62.9101 143.07 63.0613C143.268 63.4705 143.597 63.8018 144.005 64.0027C144.413 64.2036 144.876 64.2626 145.322 64.1704C150.707 63.0445 158.404 46.9378 158.504 44.1903C157.589 44.3332 147.708 52.1218 143.322 61.3809C142.095 63.9015 140.348 67.4472 142.784 67.2119C142.524 67.3719 142.227 67.4642 141.922 67.4803C141.617 67.4965 141.312 67.436 141.037 67.3043C140.141 66.9831 139.365 66.397 138.81 65.6239C138.592 65.229 138.474 63.6242 139.516 59.8097C141.557 52.5672 146.792 41.5605 151.279 33.1585C152.776 30.1662 154.599 27.3484 156.715 24.7564C157.225 24.1486 157.877 23.6754 158.614 23.3785C161.596 22.7483 164.134 25.4286 163.033 25.0589C161.487 24.622 159.42 27.4535 156.74 32.1586C152.363 39.7288 148.17 47.694 145.196 56.3733Z" fill="url(#paint3_linear_189_8326)"/>
<path d="M165.159 58.7679C165.159 59.4148 165.73 59.6837 166.906 59.44C170.805 58.5998 179.51 49.2231 184.274 43.6442C184.416 43.5098 184.828 43.6946 184.694 43.8879C181.215 48.425 172.091 60.7591 164.94 62.2463C163.26 62.5992 160.882 61.1372 160.672 59.7257C160.538 58.5049 160.623 57.2699 160.924 56.0792C161.764 52.794 164.016 48.8871 166.974 45.3834C170.881 40.8043 175.376 38.1661 177.695 37.6871C178.535 37.5191 181.123 38.2165 181.341 39.6952C181.812 42.972 172.653 52.7436 166.696 54.1551C165.801 55.5375 165.272 57.1248 165.159 58.7679ZM167.234 52.9453C171.805 51.4413 179.434 41.0144 179.468 38.9391C173.813 42.0814 168.595 49.7693 167.234 52.9453Z" fill="url(#paint4_linear_189_8326)"/>
<path d="M188.533 35.7798C188.72 35.5709 188.966 35.4243 189.239 35.3597C190.516 35.0909 192.844 36.7293 193.037 38.0484C193.037 38.2585 192.869 38.0484 192.432 38.0484C191.592 38.166 190.054 40.6194 188.752 43.0896C187.45 45.4478 186.275 47.8738 185.231 50.3574C187.542 46.1144 192.239 40.5522 196.364 36.3176C198.229 34.3935 199.725 33.1584 200.809 32.8223C201.388 32.6459 203.901 34.4607 203.59 34.9564C202.59 36.4184 198.717 41.216 197.54 45.7027C200.061 44.9549 203.422 41.8041 206.312 38.1996C206.312 38.1324 206.673 38.0148 206.741 38.1072C205.959 39.5776 200.405 46.8453 196.717 47.6183C195.759 47.82 193.894 46.3076 193.801 45.6774C193.591 44.1903 194.86 40.7707 196.02 38.8886C192.164 42.0771 188.862 45.8813 186.248 50.1473C183.946 53.6258 181.408 58.9527 182.66 59.2383C181.165 59.9273 179.644 58.5578 179.064 57.1546C178.928 56.1826 179.071 55.1919 179.476 54.2979C180.652 50.535 182.15 46.8805 183.954 43.3753C185.196 40.6823 186.731 38.135 188.533 35.7798Z" fill="url(#paint5_linear_189_8326)"/>
<path d="M273.043 39.3457C273.043 39.2434 273.094 38.7089 273.043 38.6624L266.347 34.0934L255.655 26.8054L254.342 25.9083L255.496 22.0272C256.72 17.9091 257.943 13.7909 259.164 9.67277C259.448 8.72458 259.73 7.77638 260.01 6.82819C260.028 6.7825 260.036 6.73326 260.033 6.6841C260.033 6.59579 260.033 6.49818 260.033 6.40522C260.033 6.31226 260.033 6.12169 260.033 6.14493C260.033 5.60111 260.033 5.05265 260.033 4.50418C260.033 3.95572 260.033 3.40725 260.033 2.85878C260.033 2.85878 260.033 2.79836 260.033 2.74258C260.033 2.68681 260.033 2.69611 260.033 2.66823C260.033 2.55203 260.033 2.41258 260.033 2.31032C260.028 2.26709 260.028 2.22341 260.033 2.18018V2.22666C260.031 2.21128 260.031 2.19555 260.033 2.18018L253.594 7.10242L243.313 14.9483L241.725 16.166C241.561 16.2915 241.192 16.7006 240.986 16.7331C240.874 16.7331 240.743 16.6169 240.636 16.5425L239.402 15.7012L229.215 8.72922L224.075 5.20604L222.243 3.98361C221.936 3.73151 221.607 3.50602 221.261 3.30964C221.214 3.28458 221.168 3.25501 221.126 3.22133V3.54669C221.126 3.74191 221.126 3.94643 221.126 3.89995C221.126 4.44841 221.126 4.99687 221.126 5.54533C221.126 6.0938 221.126 6.63763 221.126 7.18609C221.093 7.41268 221.093 7.64276 221.126 7.86934L223.841 15.4781C225.187 19.243 226.53 23.0048 227.869 26.7635L222.729 30.6911L212.448 38.5369L210.084 40.345C210.061 40.5722 210.061 40.8011 210.084 41.0283C210.084 41.5721 210.084 42.1206 210.084 42.669C210.084 42.841 210.084 44.993 210.107 44.993L218.28 44.7746L231.178 44.4213L233.145 44.3702C233.453 44.3083 233.769 44.2989 234.08 44.3423C234.173 44.3934 234.201 44.584 234.243 44.7002C234.411 45.165 234.58 45.6298 234.743 46.0946L238.879 57.6774L240.968 63.5433L241.696 65.5837C241.804 65.9778 241.942 66.3631 242.108 66.7364C242.201 66.8991 242.136 66.8991 242.211 66.7132C242.365 66.3413 242.444 65.923 242.561 65.5372L244.019 60.6336C245.265 56.4132 246.519 52.1912 247.781 47.9678C248.145 46.736 248.51 45.4997 248.879 44.2493C248.916 44.1192 248.926 43.9705 249.024 43.9147C249.332 43.8576 249.648 43.8498 249.958 43.8914L261.505 43.58L272.389 43.2919H273.006C273.043 43.2919 273.029 41.1445 273.029 40.9678C273.052 40.438 273.052 39.8941 273.043 39.3457ZM251.921 39.2295L249.958 39.2806C249.648 39.2374 249.332 39.2453 249.024 39.3039C248.93 39.3596 248.912 39.5548 248.879 39.671L248.454 41.098C247.285 45.0302 246.119 48.9593 244.954 52.8853C244.359 54.8747 243.767 56.864 243.178 58.8534L242.561 60.9357C242.476 61.3345 242.361 61.7261 242.215 62.107C242.131 62.2743 242.215 62.2697 242.112 62.107C241.939 61.7398 241.832 61.3261 241.696 60.9496C241.126 59.3414 240.555 57.7348 239.982 56.1297L235.537 43.6869L234.243 40.0475C234.196 39.922 234.178 39.7733 234.08 39.7222C233.769 39.6808 233.453 39.6902 233.145 39.7501L221.603 40.0568L216.406 40.1963L216.542 40.0894L226.822 32.2435L229.187 30.4354C229.207 30.2081 229.207 29.9795 229.187 29.7522C229.187 29.2037 229.187 28.6599 229.187 28.1114C229.187 27.563 229.187 27.0145 229.187 26.466C229.22 26.241 229.22 26.0125 229.187 25.7874C228.28 23.2496 227.375 20.7118 226.472 18.174L223.332 9.37994L227.804 12.4383L238.481 19.7264L240.136 20.8559C240.304 20.9721 240.696 21.3625 240.907 21.3811C241.019 21.3811 241.14 21.2556 241.243 21.1766L242.435 20.247L252.248 12.7591L257.211 8.97093L258.248 8.17611C258.075 8.75246 257.902 9.32882 257.734 9.90982L254.061 22.2642L253.22 25.1088C253.192 25.3342 253.192 25.5621 253.22 25.7874C253.22 26.3359 253.22 26.8844 253.22 27.4328C253.22 27.9813 253.22 28.5251 253.22 29.0736C253.22 29.1712 253.169 29.7104 253.22 29.7568L259.912 34.3258L266.501 38.8205L264.879 38.8623L251.921 39.2295Z" fill="#A22E2E"/>
<path d="M137.272 122.825C136.566 123.072 135.841 123.264 135.105 123.396C128.064 124.867 120.569 116.624 118.301 110.617L118.544 110.298C123.06 105.045 127.904 100.084 133.046 95.4428C133.29 95.2328 133.256 94.9639 132.903 95.2076C129.181 97.619 121.914 103.668 117.276 108.18C117.058 107.64 116.905 107.076 116.822 106.5C116.561 104.677 116.669 102.819 117.141 101.039C117.221 100.802 117.334 100.579 117.477 100.375C117.225 100.148 116.36 100.61 115.906 100.862C114.696 101.66 112.932 102.744 112.68 104.862C112.63 105.87 112.683 106.88 112.839 107.878C112.997 109.103 113.337 110.299 113.848 111.424L114.184 112.012C102.631 125.085 74.6941 153.803 61.4357 155.106C57.4868 155.517 55.4535 154.072 55.1342 151.35C54.0503 142.393 74.8874 119.716 87.3729 117.095C89.2801 116.7 90.658 113.07 89.9691 113.213C85.2723 114.205 75.2739 115.045 74.4673 108.953C73.6859 102.509 89.9187 83.9993 101.312 81.6131C104.446 80.9493 109.109 80.6637 109.529 84.5454C110.151 90.8133 96.9763 101.349 94.2457 101.879C93.6996 101.996 94.7498 99.543 95.5732 98.4004C94.1532 99.2406 91.2545 102.601 91.3721 103.946C91.4898 105.29 93.2206 106.542 94.733 106.231C102.295 104.643 112.1 93.6784 111.394 85.8225C110.823 78.916 104.883 79.1009 99.9759 80.1511C87.3729 82.7978 68.4094 98.0559 68.5523 110.34C68.6783 117.061 77.4332 118.347 80.9032 118.036C71.3417 120.951 48.3874 138.646 48.7234 152.703C48.7907 158.046 53.7059 161.466 60.4023 160.197C76.4922 157.189 104.639 127.278 115.469 114.146C119.779 120.8 127.56 125.489 134.256 124.077C135.34 123.866 136.378 123.465 137.323 122.892C137.634 122.749 137.424 122.741 137.272 122.825Z" fill="url(#paint6_linear_189_8326)"/>
<path d="M210.732 79.7226C211.677 78.1283 212.858 76.6864 214.235 75.446C214.562 75.2219 214.958 75.1207 215.353 75.1603C215.563 75.1099 215.134 74.3873 214.58 73.9588C213.739 73.3119 212.446 72.5053 211.219 72.917C209.891 73.6312 208.354 77.4961 208.631 79.0169C208.875 79.9579 210.152 80.8317 210.732 79.7226Z" fill="url(#paint7_linear_189_8326)"/>
<path d="M233.652 73.2782C229.703 79.5041 220.856 92.6029 216.537 96.972C216.866 94.1023 217.535 91.2819 218.529 88.5699C219.915 84.8478 221.184 81.8063 222.217 81.6971C222.646 81.6046 222.73 81.8063 222.755 81.6382C222.494 80.2183 220.175 78.5883 218.898 78.9076C218.637 78.9849 218.409 79.1476 218.251 79.3697C216.991 80.8989 215.664 83.89 214.42 87.6205C211.303 91.8215 205.371 99.5178 202.489 100.929C202.817 98.6272 208.371 85.0327 210.614 84.789C211.051 84.747 211.353 84.957 211.328 84.747C211.135 83.4279 208.698 81.7559 207.472 82.0163C207.166 82.0747 206.895 82.2494 206.715 82.5036C205.262 84.3663 204.008 86.3771 202.976 88.5027C198.772 90.6558 194.825 93.2801 191.214 96.325C190.609 95.9637 189.205 95.384 189.289 94.4429C189.626 91.8131 197.179 85.0495 199.666 84.747C199.708 85.8224 196.666 90.2755 196.507 90.3091C196.347 90.3427 196.591 90.5108 196.641 90.5024C198.086 90.1999 200.994 86.3014 200.943 85.5704C200.884 83.9992 199.834 81.7139 198.339 82.0247C193.642 83.0162 186.525 88.5951 186.248 92.7877C186.229 93.1403 186.286 93.4928 186.416 93.8212C183.257 98.0222 177.753 105.147 174.88 106.668C174.67 105.189 176.107 101.022 178.241 96.9215C179.669 94.2245 180.887 92.0064 181.602 90.9897C181.964 90.3161 182.516 89.7638 183.19 89.4017C183.677 89.4017 183.87 89.5866 183.845 89.4017C183.652 88.0826 181.324 86.4442 180.047 86.7131C179.771 86.7697 179.523 86.9178 179.342 87.1332C176.628 90.0991 173.342 95.5352 170.939 98.812C168.73 101.778 163.966 107.685 161.554 109.273C161.336 107.743 163.344 102.551 165.562 98.4675C167.041 95.7621 168.923 92.5441 169.704 92.4769C170.192 92.4349 170.444 92.6533 170.41 92.4349C170.217 91.0653 167.839 89.4437 166.554 89.7126C166.271 89.7788 166.023 89.9462 165.856 90.1831C164.078 92.4551 162.548 94.9113 161.294 97.5097C160.966 98.165 160.647 98.8288 160.328 99.5094C156.967 103.878 150.917 111.911 148.876 112.112C149.674 108.458 152.707 100.904 156.354 92.9474C158.462 88.5279 160.21 84.9486 162.084 81.5626C163.957 78.1766 166.78 72.5136 168.805 72.9673C169.898 73.337 167.327 70.7156 164.361 71.5054C163.633 71.8247 163.004 72.3323 162.537 72.9757C161.09 74.7527 159.836 76.6793 158.798 78.7227C156.538 82.9237 153.757 88.217 151.237 94.0396C149.733 97.4593 148.523 100.35 147.573 102.786C142.927 108.037 136.416 114.978 132.223 116.33C131.752 116.481 130.669 116.608 130.542 115.759C130.013 112.054 138.76 97.913 144.456 96.6023C144.935 96.8879 143.347 101.526 142.616 102.551C142.524 102.727 142.809 102.778 142.902 102.652C144.473 100.971 146.809 98.4507 146.523 96.4426C146.405 95.6528 144.33 94.2329 143.104 94.4934C139.314 95.2915 134.315 99.1733 130.551 104.374C127.467 108.575 126.081 112.667 125.972 114.978C125.91 115.516 125.953 116.061 126.098 116.582C126.44 117.427 127.058 118.13 127.852 118.577C128.646 119.024 129.567 119.189 130.467 119.044C135.651 117.952 142.23 110.508 146.784 104.819C145.103 109.247 144.54 111.76 144.683 112.734C144.759 113.314 144.885 113.398 144.952 113.49C145.533 114.237 146.301 114.817 147.178 115.171C147.46 115.285 147.764 115.331 148.066 115.305C148.369 115.278 148.661 115.181 148.918 115.02C151.085 113.709 155.749 107.458 159 102.66C157.698 105.962 156.832 109.037 157.042 110.533C157.237 111.153 157.621 111.696 158.141 112.085C158.662 112.474 159.292 112.69 159.941 112.701L160.37 112.608C163.478 111.306 169.545 102.19 174.149 95.6108C172.501 98.6484 171.267 101.892 170.477 105.256C170.295 106.044 170.208 106.851 170.217 107.659C170.39 108.184 170.69 108.658 171.09 109.039C171.49 109.42 171.978 109.696 172.511 109.844C172.787 109.988 173.103 110.036 173.41 109.978C176.317 109.373 182.652 100.56 186.786 94.4513C187.735 95.8209 189.743 96.6191 190.256 97.0728C188.491 98.2071 181.282 104.299 181.45 106.609C181.879 107.71 182.61 108.542 183.778 108.289C187.248 107.567 193.86 103.248 194.146 99.6858C194.146 98.5431 192.592 97.2912 191.827 96.9131C195.107 94.2565 198.619 91.9001 202.321 89.8722C199.935 94.7202 197.809 100.274 198.07 102.131C198.213 103.089 199.75 104.122 200.59 104.215C200.808 104.208 201.025 104.179 201.237 104.13C204.027 103.29 209.706 95.636 213.756 89.7042C212.479 94.0564 212.076 97.7954 212.328 99.7866C212.387 100.207 213.865 101.643 214.924 101.366C216.605 101.013 229.905 83.9488 233.988 73.2866C234.257 72.6733 233.963 72.7825 233.652 73.2782ZM182.719 105.769C184.047 103.904 187.618 100.434 190.567 97.9634C190.852 99.9715 184.685 104.786 182.719 105.769Z" fill="url(#paint8_linear_189_8326)"/>
<path d="M250.944 79.1848C246.188 84.7554 237.5 94.1572 233.577 94.9722C232.4 95.2243 231.896 94.9722 231.829 94.3085C231.939 92.6596 232.469 91.0662 233.367 89.679C239.324 88.2674 248.49 78.5042 248.003 75.219C247.793 73.7403 245.163 73.0429 244.365 73.211C242.063 73.6899 237.551 76.3281 233.644 80.9072C230.686 84.4193 228.443 88.3178 227.594 91.603C227.293 92.7937 227.208 94.0287 227.342 95.2495C227.552 96.6778 229.955 98.1314 231.611 97.7701C238.71 96.2829 247.885 83.9572 251.364 79.4117C251.498 79.2268 251.061 79.042 250.944 79.1848ZM246.138 74.4713C246.138 76.5466 238.475 86.9735 233.904 88.4775C235.265 85.3015 240.483 77.622 246.138 74.4713Z" fill="url(#paint9_linear_189_8326)"/>
</g>
<defs>
<linearGradient id="paint0_linear_189_8326" x1="55.0511" y1="40.6502" x2="62.2442" y2="61.4837" gradientUnits="userSpaceOnUse">
<stop stop-color="#F3F3F1"/>
<stop offset="1" stop-color="#F0E6C5"/>
</linearGradient>
<linearGradient id="paint1_linear_189_8326" x1="97.3446" y1="58.1798" x2="100.647" y2="64.5678" gradientUnits="userSpaceOnUse">
<stop stop-color="#F3F3F1"/>
<stop offset="1" stop-color="#F0E6C5"/>
</linearGradient>
<linearGradient id="paint2_linear_189_8326" x1="125.173" y1="51.9713" x2="128.101" y2="60.3294" gradientUnits="userSpaceOnUse">
<stop stop-color="#F3F3F1"/>
<stop offset="1" stop-color="#F0E6C5"/>
</linearGradient>
<linearGradient id="paint3_linear_189_8326" x1="151.692" y1="31.4366" x2="158.92" y2="39.3994" gradientUnits="userSpaceOnUse">
<stop stop-color="#F3F3F1"/>
<stop offset="1" stop-color="#F0E6C5"/>
</linearGradient>
<linearGradient id="paint4_linear_189_8326" x1="173.363" y1="42.2078" x2="176.666" y2="48.5962" gradientUnits="userSpaceOnUse">
<stop stop-color="#F3F3F1"/>
<stop offset="1" stop-color="#F0E6C5"/>
</linearGradient>
<linearGradient id="paint5_linear_189_8326" x1="193.68" y1="37.7199" x2="197.116" y2="44.7961" gradientUnits="userSpaceOnUse">
<stop stop-color="#F3F3F1"/>
<stop offset="1" stop-color="#F0E6C5"/>
</linearGradient>
<linearGradient id="paint6_linear_189_8326" x1="95.6711" y1="94.5242" x2="105.769" y2="116.439" gradientUnits="userSpaceOnUse">
<stop stop-color="#F3F3F1"/>
<stop offset="1" stop-color="#F0E6C5"/>
</linearGradient>
<linearGradient id="paint7_linear_189_8326" x1="212.2" y1="74.1768" x2="213.234" y2="76.049" gradientUnits="userSpaceOnUse">
<stop stop-color="#F3F3F1"/>
<stop offset="1" stop-color="#F0E6C5"/>
</linearGradient>
<linearGradient id="paint8_linear_189_8326" x1="183.15" y1="80.1635" x2="186.486" y2="95.105" gradientUnits="userSpaceOnUse">
<stop stop-color="#F3F3F1"/>
<stop offset="1" stop-color="#F0E6C5"/>
</linearGradient>
<linearGradient id="paint9_linear_189_8326" x1="240.033" y1="77.7321" x2="243.336" y2="84.1208" gradientUnits="userSpaceOnUse">
<stop stop-color="#F3F3F1"/>
<stop offset="1" stop-color="#F0E6C5"/>
</linearGradient>
<clipPath id="clip0_189_8326">
<rect width="276.066" height="160" fill="white" transform="translate(0 0.499756)"/>
</clipPath>
</defs>
</svg>
