<svg width="227" height="120" viewBox="0 0 227 120" fill="none" xmlns="http://www.w3.org/2000/svg">
<g clip-path="url(#clip0_1799_34933)">
<path d="M67.1554 64.5806C66.6145 64.7244 66.1284 64.8613 65.6354 64.9503C60.4317 65.8541 56.7343 62.9373 56.6111 56.8709C56.3646 46.6826 65.6628 29.2708 69.7299 24.1629C62.7391 28.8736 44.3071 53.8103 44.4372 59.0346C44.4372 60.0411 41.0137 58.8291 40.9726 56.6655C40.8494 51.3386 51.6881 28.6751 55.3513 24.1219C48.6207 29.2639 38.9938 41.0065 32.1674 50.5169C25.875 59.507 22.8076 65.1284 22.8418 66.6073C22.8418 67.292 25.7655 65.0873 25.5806 65.3338C24.4443 66.9941 22.7635 68.2051 20.8288 68.7573C20.6071 68.767 20.3858 68.7305 20.1791 68.6499C19.9723 68.5693 19.7847 68.4464 19.6281 68.2892C19.4715 68.132 19.3495 67.9438 19.2697 67.7367C19.19 67.5297 19.1543 67.3082 19.165 67.0866C19.0007 60.3286 43.369 24.026 43.191 16.5354C43.1294 14.05 40.8631 14.0226 39.0418 14.3375C25.2657 16.7408 3.22525 45.4981 3.30057 48.7915C3.30097 48.9143 3.32936 49.0354 3.38357 49.1455C3.43777 49.2557 3.51634 49.3521 3.61337 49.4273C3.7104 49.5026 3.82332 49.5547 3.94352 49.5798C4.06372 49.6049 4.18803 49.6022 4.30705 49.572C5.12929 49.363 5.93128 49.0812 6.70349 48.7299C6.70349 49.2023 3.80041 50.9825 2.67066 51.1811C1.09586 51.455 0.0345524 50.3115 -0.0065294 48.7299C-0.211939 40.2328 24.2934 15.57 38.9801 13.0161C43.6429 12.2081 46.2105 14.3101 46.3132 18.6374C46.4365 23.6494 38.5899 37.8089 32.2907 48.4217C45.9846 28.9147 58.3091 17.1379 60.5207 16.7545C62.0887 16.4806 64.6837 17.672 64.9781 19.7398C64.7727 19.4591 64.2318 19.4454 63.8894 19.507C61.9243 19.8493 50.0175 41.3146 45.1972 54.0226C54.7829 34.2348 77.1589 11.5303 80.4523 10.962C82.1161 10.6676 84.492 13.064 84.7179 14.2485C84.2095 14.0758 83.661 14.0591 83.1431 14.2006C78.7199 14.9675 59.4868 45.3406 59.7744 57.4324C59.8976 62.4991 62.0134 64.1972 67.2581 63.129L67.1554 64.5806Z" fill="url(#paint0_linear_1799_34933)"/>
<path d="M81.8964 41.4927C80.4585 43.2113 71.085 53.0572 69.0172 53.3927C68.8656 53.3939 68.7149 53.3684 68.5721 53.3174C67.682 53.023 66.3606 51.3591 66.3332 50.3732C66.2031 44.9983 77.1857 32.1671 86.1894 30.6881C88.0587 30.38 90.5304 30.7703 90.5851 33.0846C90.5386 33.976 90.2341 34.8347 89.7087 35.5563C89.6128 35.618 89.517 35.5563 89.5649 35.5563C89.8773 34.9845 90.0464 34.3455 90.0579 33.694C90.0579 32.215 89.072 31.6399 87.5999 31.9685C84.7584 32.5847 81.2185 35.2414 78.0963 38.4731C73.5225 43.266 69.9895 50.0445 70.4345 50.2157C70.4933 50.2322 70.5548 50.2358 70.6151 50.2264C70.6753 50.2169 70.7329 50.1946 70.7837 50.1609C72.3859 49.353 79.1439 43.2455 81.6499 40.6642C82.5126 39.7261 85.6279 36.1041 86.8399 35.1866C87.8121 34.5019 89.5786 36.9737 89.3664 37.5967C89.1062 37.1448 84.82 43.2386 83.4164 46.6347C83.1719 47.1927 83.0215 47.7873 82.9713 48.3944C86.0387 47.025 92.8994 39.0962 95.8778 35.7412C95.8926 35.7161 95.9125 35.6944 95.936 35.6773C95.9595 35.6602 95.9863 35.6481 96.0147 35.6418C96.0431 35.6355 96.0725 35.6351 96.1011 35.6407C96.1296 35.6462 96.1568 35.6576 96.1808 35.674C96.2048 35.6905 96.2251 35.7117 96.2406 35.7364C96.256 35.761 96.2662 35.7886 96.2706 35.8174C96.2749 35.8462 96.2733 35.8755 96.2658 35.9036C96.2583 35.9318 96.2451 35.958 96.227 35.9808C92.0709 41.3626 84.2654 50.9004 81.3143 51.3865C81.0238 51.4101 80.7325 51.3532 80.4721 51.2222C79.7874 50.9415 78.8152 50.0582 78.7947 49.1681C78.8421 48.5274 78.9592 47.8937 79.1439 47.2783C79.808 45.2391 80.7332 43.2944 81.8964 41.4927Z" fill="url(#paint1_linear_1799_34933)"/>
<path d="M100.376 28.7162C100.563 28.5313 100.802 28.4072 101.061 28.3601C102.238 28.1616 104.149 29.7843 104.183 31.0099C104.183 31.2085 104.032 31.0099 103.635 31.0099C102.903 31.0784 101.225 33.2831 99.8009 35.4947C98.5205 37.4871 96.8567 40.089 95.8707 42.0815C98.3904 38.254 103.204 33.3105 107.353 29.5584C109.236 27.8672 110.688 26.8196 111.715 26.5183C112.256 26.3814 114.323 28.1753 113.988 28.6203C112.933 29.9349 108.942 34.2006 107.415 38.3088C109.77 37.7268 113.105 34.9538 116.083 31.7425C116.131 31.6878 116.425 31.5919 116.473 31.6809C115.617 33.0092 109.859 39.4933 106.47 40.0479C105.587 40.1917 104.073 38.6785 104.06 38.1171C104.026 36.7477 105.525 33.6186 106.764 31.9548C102.954 34.7573 99.594 38.1262 96.802 41.9445C94.3645 45.0667 91.5229 49.887 92.6116 50.202C91.1943 50.784 89.9824 49.4488 89.6058 48.1479C89.5949 47.226 89.8313 46.3181 90.2905 45.5186C91.7555 42.0839 93.4909 38.771 95.4805 35.6111C96.8684 33.1489 98.5091 30.8382 100.376 28.7162Z" fill="url(#paint2_linear_1799_34933)"/>
<path d="M111.654 46.3677C110.86 46.2513 109.6 45.2174 109.6 44.3136C109.525 41.4584 116.392 29.5447 119.474 26.5115C119.659 26.2881 119.919 26.1397 120.206 26.0938C121.336 25.909 123.342 27.5591 123.376 28.7915C123.376 28.9901 123.13 28.7915 122.733 28.7915C120.679 28.9216 114.256 41.2667 113.715 43.3824C116.694 42.1021 123.698 34.0774 126.629 30.6813C126.964 30.3732 127.217 30.7292 127.074 30.9004C122.911 36.2342 115.297 45.5461 112.257 46.2924C112.06 46.3413 111.857 46.3666 111.654 46.3677ZM127.464 18.9387C127.916 19.3564 128.231 20.048 128.032 20.0822C127.675 20.0284 127.31 20.1063 127.005 20.3013C125.626 21.3901 124.41 22.6723 123.397 24.1082C122.712 25.1079 121.671 24.2383 121.603 23.3619C121.521 21.9377 123.308 18.4321 124.575 17.8295C125.704 17.494 126.807 18.302 127.464 18.9387Z" fill="url(#paint3_linear_1799_34933)"/>
<path d="M135.879 32.6532C134.441 34.3718 125.067 44.2177 123 44.5601C122.848 44.5579 122.698 44.5325 122.555 44.4848C121.658 44.1835 120.336 42.5197 120.316 41.5337C120.186 36.1657 131.168 23.3276 140.172 21.8487C142.034 21.5474 144.513 21.9308 144.568 24.2451C144.52 25.1363 144.215 25.9947 143.691 26.7169C143.595 26.7853 143.493 26.7511 143.54 26.7169C143.859 26.1472 144.031 25.5072 144.04 24.8545C144.04 23.3756 143.054 22.8004 141.582 23.1291C138.734 23.7453 135.201 26.4019 132.072 29.6337C127.505 34.3923 123.972 41.2051 124.417 41.3831C124.475 41.3967 124.536 41.3983 124.594 41.3877C124.653 41.3771 124.709 41.3546 124.759 41.3215C126.368 40.5135 133.126 34.4129 135.625 31.8247C136.495 30.8935 139.61 27.2646 140.822 26.3471C141.795 25.6624 143.527 28.1274 143.349 28.7504C143.089 28.2985 138.796 34.3992 137.399 37.7953C137.156 38.3517 137.003 38.9434 136.947 39.5481C140.021 38.1787 146.882 30.2499 149.86 26.8949C149.875 26.8698 149.895 26.8481 149.918 26.831C149.942 26.8139 149.969 26.8018 149.997 26.7955C150.026 26.7892 150.055 26.7888 150.084 26.7944C150.112 26.7999 150.139 26.8113 150.163 26.8277C150.187 26.8442 150.208 26.8654 150.223 26.8901C150.238 26.9147 150.249 26.9423 150.253 26.9711C150.257 26.9999 150.256 27.0292 150.248 27.0573C150.241 27.0855 150.228 27.1117 150.209 27.1345C146.053 32.5163 138.241 42.0609 135.297 42.5402C135.007 42.5666 134.715 42.5121 134.455 42.3827C133.77 42.102 132.798 41.2188 132.777 40.3286C132.824 39.6901 132.941 39.0587 133.126 38.4457C133.789 36.4038 134.714 34.4567 135.879 32.6532Z" fill="url(#paint4_linear_1799_34933)"/>
<path d="M155.467 14.1733C157.46 12.8586 163.266 4.23831 163.252 3.54676C163.252 3.30027 163.581 3.04694 163.875 2.99901C164.957 2.82783 166.32 4.18353 166.347 5.12157C166.347 6.55258 159.699 13.783 155.522 14.4608C155.426 14.4814 155.303 14.3513 155.467 14.1733Z" fill="url(#paint5_linear_1799_34933)"/>
<path d="M165.465 25.4639C165.287 26.3335 166.485 26.9292 166.985 27.2921C174.735 21.568 181 19.4523 181.637 19.3496C181.733 19.3496 181.932 19.3975 181.938 19.5481C182.384 19.6234 172.722 23.7796 167.443 27.8603C168.128 28.2438 169.354 29.4762 169.237 30.5375C168.621 33.8514 162.206 37.5214 159.008 38.0692C157.933 38.2472 157.372 37.4461 157.098 36.3985C157.194 34.2554 164.314 28.9353 165.999 27.9631C165.444 27.3605 162.507 26.0596 162.89 23.8549C163.575 19.9795 170.572 15.125 174.893 14.4197C176.262 14.1938 176.947 16.3574 176.851 17.8432C176.851 18.5279 173.797 22.0062 172.469 22.2253C172.421 22.2253 172.319 22.0473 172.366 22.0404C172.414 22.0336 175.721 18.0281 175.79 17.0284C173.544 17.1106 166.047 23.0401 165.465 25.4639ZM158.357 35.6317C160.261 34.7758 166.279 30.6197 166.231 28.7847C163.328 30.9072 159.747 33.9678 158.357 35.6317Z" fill="url(#paint6_linear_1799_34933)"/>
<g clip-path="url(#clip1_1799_34933)">
<path d="M221.235 7.32068C218.563 4.11168 214.991 1.798 210.994 0.686079C206.801 -0.454558 202.363 -0.242281 198.299 1.29325C194.164 2.85675 190.587 5.63715 188.03 9.27673C185.578 12.7652 184.245 16.9335 184.212 21.2176C184.185 25.5392 185.505 29.7618 187.982 33.2866C190.374 36.6457 193.714 39.1939 197.564 40.595C201.698 42.0705 206.182 42.201 210.389 40.9683C214.622 39.6999 218.379 37.1753 221.175 33.721C223.862 30.4281 225.493 26.3829 225.848 22.1248C225.932 21.0294 225.935 19.9289 225.856 18.8329C225.534 14.605 223.919 10.5813 221.235 7.32068ZM195.002 4.77595L195.074 4.73084C195.029 4.76542 194.797 4.8961 195.001 4.77311L195.002 4.77595ZM223.401 23.0451C223.315 24.0474 223.153 25.0415 222.918 26.0188C222.86 26.2649 222.796 26.5085 222.726 26.7525C222.713 26.7961 222.702 26.8424 222.688 26.8889L222.689 26.9031C222.648 27.0341 222.607 27.1651 222.563 27.2963C222.41 27.7711 222.236 28.2418 222.044 28.7023C221.853 29.1628 221.659 29.5837 221.442 30.0148C221.339 30.2214 221.228 30.4258 221.119 30.63L221.092 30.6803L221.047 30.7632L220.857 31.0815C220.604 31.5038 220.334 31.916 220.047 32.318C219.914 32.5069 219.793 32.6921 219.638 32.8769L219.412 33.1778C219.348 33.2593 219.1 33.6044 219.314 33.3044C218.728 34.0592 218.064 34.7483 217.333 35.3601L217.306 35.3791L217.269 35.4159L217.203 35.4719C217.134 35.5309 217.063 35.593 216.991 35.6494C216.803 35.8082 216.609 35.9617 216.414 36.1095C216.021 36.4226 215.614 36.694 215.206 36.9598C215.154 36.9871 215.105 37.0183 215.058 37.0531L214.853 37.176C214.64 37.3025 214.424 37.4263 214.205 37.5446C213.77 37.7811 213.322 38.0014 212.867 38.2108C212.77 38.2603 212.67 38.3046 212.568 38.3435C212.914 38.233 212.526 38.3466 212.453 38.3888L211.747 38.6535C211.27 38.8228 210.787 38.9727 210.298 39.1031C210.066 39.1654 209.834 39.2165 209.599 39.2762L209.486 39.2987L209.061 39.3807C208.548 39.4749 208.033 39.5465 207.517 39.5983C207 39.65 206.502 39.6721 205.994 39.6919L205.604 39.6975L205.447 39.7089L205.394 39.7128C205.138 39.7058 204.878 39.6962 204.621 39.6808C203.625 39.62 202.634 39.4808 201.659 39.2646C199.797 38.8555 198.008 38.1564 196.357 37.1922C195.52 36.7095 194.718 36.165 193.959 35.5631C193.541 35.2293 193.301 35.0249 192.939 34.6871C192.577 34.3493 192.25 34.026 191.927 33.6769C189.225 30.8017 187.465 27.1547 186.886 23.2335C186.575 21.2265 186.592 19.182 186.938 17.1819C187.019 16.6943 187.117 16.2131 187.232 15.7382C187.289 15.5093 187.348 15.2803 187.413 15.0508C187.431 14.9926 187.446 14.9346 187.464 14.8736C187.501 14.7543 187.54 14.6348 187.579 14.5153C187.89 13.5672 188.272 12.6445 188.722 11.7554C188.825 11.5487 188.94 11.347 189.046 11.1401C189.061 11.1105 189.077 11.0817 189.096 11.054L189.306 10.6945C189.562 10.272 189.833 9.85971 190.118 9.45775C190.254 9.27153 190.389 9.08531 190.531 8.90151L190.729 8.64816L190.845 8.50319C190.899 8.43667 190.916 8.40977 190.911 8.41301C191.191 8.0658 191.492 7.73613 191.812 7.42582C192.144 7.08307 192.492 6.75628 192.842 6.43778C192.855 6.42776 192.866 6.41644 192.876 6.404L192.908 6.37893L193.155 6.17325C193.357 6.00783 193.561 5.84502 193.769 5.68767C194.151 5.39819 194.542 5.1232 194.943 4.86269C194.994 4.83513 195.042 4.80403 195.088 4.76964L195.333 4.62098C195.546 4.49738 195.762 4.37358 195.982 4.25524C196.406 4.03474 196.838 3.82218 197.279 3.61757L197.47 3.53259L197.696 3.44215C197.942 3.34179 198.194 3.2495 198.446 3.16005C198.907 2.99856 199.377 2.85344 199.852 2.72791C200.069 2.6694 200.288 2.61655 200.506 2.56371L200.714 2.52016C200.855 2.48998 200.991 2.46304 201.141 2.43791C202.155 2.25629 203.181 2.15502 204.211 2.13502L204.554 2.13002L204.688 2.12026L204.764 2.11477C205.023 2.12436 205.279 2.13132 205.536 2.14678C206.045 2.17809 206.552 2.23225 207.057 2.30359C208.037 2.44083 209.005 2.65581 209.952 2.94654L210.13 3.00186L210.144 3.00084L210.167 2.99921L210.478 3.10459C210.712 3.18433 210.943 3.27277 211.174 3.3612C211.634 3.5411 212.088 3.74142 212.533 3.9565C213.406 4.37692 214.247 4.86255 215.048 5.40935C215.813 5.92756 216.539 6.50233 217.22 7.12895C218.643 8.44981 219.866 9.97503 220.85 11.6555C221.841 13.3398 222.562 15.1723 222.985 17.0844C223.209 18.0764 223.358 19.0841 223.432 20.0986C223.505 21.0819 223.495 22.0695 223.402 23.0508L223.401 23.0451Z" fill="#A22E2E"/>
<path d="M217.192 35.4698C217.223 35.4355 217.258 35.4044 217.295 35.3769C217.352 35.3159 217.256 35.3456 217.192 35.4698Z" fill="#A22E2E"/>
<path d="M216.042 19.2988C216.029 19.2816 216.014 19.2671 215.995 19.2562C215.977 19.2453 215.957 19.2383 215.936 19.2354L210.711 16.0509L202.207 10.8745L200.248 9.67993C199.918 9.47915 199.305 9.97605 199.07 10.1496C198.825 10.3236 198.597 10.5222 198.391 10.7423C198.271 10.8762 198.005 11.1203 198.019 11.3155L199.576 32.731C199.613 33.2318 200.827 32.3385 200.925 32.2602L205.73 28.2782L213.393 21.9236L215.162 20.4609C215.329 20.3207 216.033 19.7945 216.072 19.4417C216.093 19.3805 216.086 19.3269 216.042 19.2988ZM209.907 23.864L202.239 30.2161L201.774 30.5998L200.489 12.9224L203.363 14.6734L211.865 19.85L213.524 20.8672L209.907 23.864Z" fill="#A22E2E"/>
</g>
<path d="M70.0917 118.555C70.0917 118.733 70.3176 118.959 70.8243 118.857C71.2967 118.731 71.7555 118.559 72.1937 118.343C71.9404 118.966 70.4546 119.788 69.6192 119.959C69.0533 120.045 68.4752 119.925 67.9902 119.621C67.5051 119.317 67.1453 118.849 66.9763 118.302C65.8945 107.984 80.862 71.9 80.0814 64.0671C79.8829 61.9035 77.4043 61.3968 75.405 61.8213C61.5125 64.7381 42.0602 93.0914 42.471 97.1448C42.471 97.8295 42.9708 98.2266 44.0253 98.0075C44.71 97.8569 45.6206 97.5625 45.737 97.5899C45.737 97.809 43.6829 99.5549 42.115 99.8836C39.787 100.37 38.5135 99.1099 38.3081 97.2818C37.4796 89.1202 59.3009 63.67 75.2817 60.3081C78.5614 59.6234 83.3474 60.6573 83.7993 65.3817C84.84 76.2205 76.0074 96.8778 71.4748 111.462C83.1968 87.0524 106.689 51.1674 120.383 46.8675C121.649 46.4909 123.169 47.9288 123.354 49.1955C123.731 51.8384 121.944 54.139 121.3 55.125C121.629 54.6046 121.834 53.2557 121.766 51.5714C121.766 51.3523 121.821 50.3663 121.04 50.5306C110.222 52.8038 78.1506 95.3714 70.0917 118.555Z" fill="url(#paint7_linear_1799_34933)"/>
<path d="M109.154 72.2698C109.925 70.9706 110.887 69.7955 112.01 68.7847C112.276 68.6021 112.599 68.5196 112.92 68.5519C113.091 68.5108 112.742 67.922 112.29 67.5728C111.606 67.0456 110.544 66.3814 109.552 66.7237C108.47 67.3057 107.217 70.4553 107.443 71.6946C107.614 72.4615 108.655 73.1736 109.154 72.2698Z" fill="url(#paint8_linear_1799_34933)"/>
<path d="M181.61 62.5128C181.61 62.3827 181.404 62.328 181.315 62.3485C180.747 62.4649 175.317 64.5874 168.915 69.9281C168.422 69.6268 167.279 69.1612 167.347 68.3875C167.621 66.2444 173.777 60.7395 175.803 60.4861C175.803 61.3694 173.359 64.9983 173.229 65.0257C173.099 65.0531 173.297 65.19 173.339 65.1763C174.516 64.9298 176.885 61.7528 176.844 61.1571C176.789 59.8836 175.94 58.0212 174.722 58.2746C171.36 58.9592 166.505 62.5813 165.184 65.7651L164.711 65.9226C162.986 66.4224 161.801 65.6487 160.781 64.4847C160.631 64.3733 160.458 64.2959 160.275 64.2581C160.091 64.2202 159.902 64.2228 159.72 64.2656C159.158 64.43 158.042 65.9979 157.974 66.4498C157.905 66.9017 158.481 68.1205 158.755 68.4628C156.474 73.468 151.223 81.6706 148.662 81.1914C146.101 80.7121 153.085 64.2383 160.987 62.5881C161.288 62.5197 161.671 62.5334 162.089 62.4854C162.267 62.4512 162.397 62.4238 162.157 62.3417C161.815 62.1431 161.055 61.8144 159.419 62.1636C154.585 63.1838 148.929 67.9562 146.361 73.1188C142.424 77.4803 137.214 82.7045 134.619 83.2386C133.667 83.4372 133.249 83.2386 133.202 82.6908C133.289 81.3499 133.718 80.0535 134.448 78.925C139.302 77.7679 146.772 69.8117 146.382 67.1414C146.211 65.9363 144.068 65.3612 143.41 65.4981C141.541 65.8952 137.864 68.0452 134.681 71.7699C133.308 73.3828 132.116 75.1416 131.127 77.0147C128.484 80.4382 124.876 84.8066 123.308 85.2311C123.992 82.2869 126.67 75.8713 129.675 69.3803C131.36 65.7857 132.777 62.8689 134.352 60.0958C135.927 57.3228 138.179 52.7285 139.754 53.1051C140.603 53.4132 138.508 51.2838 136.091 51.9206C135.497 52.1791 134.984 52.593 134.605 53.1188C133.451 54.5849 132.431 56.1524 131.558 57.8021C129.84 61.1366 127.656 65.279 125.554 69.976C125.254 69.7798 124.915 69.6491 124.562 69.5924C124.208 69.5358 123.846 69.5545 123.499 69.6474C120.884 70.1951 118.125 72.1944 115.091 75.1249C113.446 76.7138 112.01 78.5062 110.819 80.4587C108.169 83.937 104.41 88.5792 102.424 89.5515C102.692 87.6754 107.217 76.597 109.045 76.3985C109.401 76.3985 109.648 76.5354 109.627 76.3985C109.47 75.3167 107.484 73.961 106.478 74.1732C106.232 74.2231 106.014 74.3651 105.869 74.5703C103.397 77.3502 98.4395 88.0657 98.7955 90.5649C98.9119 91.3386 100.165 92.1876 100.85 92.2561C101.027 92.2557 101.204 92.2351 101.377 92.1944C103.068 91.6946 106.053 88.1205 108.826 84.341C108.317 85.4087 108.066 86.5816 108.094 87.7644C108.238 88.7573 109.908 90.4005 110.689 90.2362C112.948 89.7638 120.726 79.6097 122.075 78.0828C120.5 82.4033 119.864 84.8476 120.021 85.7104C120.179 86.5731 121.247 87.3605 122 87.6001C122.239 87.6814 122.492 87.7118 122.743 87.6893C122.994 87.6669 123.238 87.5922 123.458 87.47C124.787 86.7442 127.471 83.3618 129.874 80.0137C129.819 80.1849 129.758 80.356 129.716 80.5203C129.47 81.4905 129.403 82.4976 129.518 83.4919C129.682 84.6559 131.647 85.8405 132.996 85.546C137.063 84.6902 141.959 79.4728 145.499 75.166C144.991 76.603 144.825 78.1384 145.013 79.6508C145.076 80.0826 145.225 80.4973 145.451 80.8704C145.677 81.2434 145.976 81.5673 146.33 81.8227C146.684 82.0781 147.085 82.2599 147.51 82.3573C147.936 82.4547 148.376 82.4656 148.806 82.3896C153.455 81.7049 161.569 73.5844 161.918 67.607C162.365 67.6498 162.817 67.615 163.253 67.5043C163.818 67.3845 164.371 67.2102 164.903 66.9839C164.903 66.9839 164.903 67.0455 164.903 67.0729C164.787 69.0517 167.573 70.065 168.142 70.5649C166.704 71.4892 160.829 76.4532 160.966 78.3293C161.315 79.2331 161.904 79.911 162.863 79.6987C165.69 79.1099 171.079 75.5905 171.312 72.6874C171.312 71.7562 170.045 70.736 169.422 70.4211C173.722 66.6073 182.007 62.5539 181.61 62.5128ZM144.814 66.5525C144.814 68.2437 138.57 76.7408 134.845 77.9664C135.954 75.3851 140.24 69.1201 144.814 66.5525ZM111.723 87.3536C111.346 87.2098 113.612 82.0746 116.995 77.5898C119.049 74.762 121.61 71.9616 123.369 71.1058C123.931 70.811 124.564 70.6782 125.197 70.7223L123.02 75.837C118.563 81.3009 112.291 87.5453 111.723 87.3536ZM161.993 77.5898C163.913 75.2714 166.053 73.1436 168.381 71.2359C168.621 72.886 163.623 76.7614 161.993 77.5898Z" fill="url(#paint9_linear_1799_34933)"/>
</g>
<defs>
<linearGradient id="paint0_linear_1799_34933" x1="44.8077" y1="21.6046" x2="50.6684" y2="38.5808" gradientUnits="userSpaceOnUse">
<stop stop-color="#F3F3F1"/>
<stop offset="1" stop-color="#F0E6C5"/>
</linearGradient>
<linearGradient id="paint1_linear_1799_34933" x1="82.1692" y1="34.8022" x2="84.6815" y2="41.3251" gradientUnits="userSpaceOnUse">
<stop stop-color="#F3F3F1"/>
<stop offset="1" stop-color="#F0E6C5"/>
</linearGradient>
<linearGradient id="paint2_linear_1799_34933" x1="103.817" y1="30.9075" x2="106.742" y2="37.4259" gradientUnits="userSpaceOnUse">
<stop stop-color="#F3F3F1"/>
<stop offset="1" stop-color="#F0E6C5"/>
</linearGradient>
<linearGradient id="paint3_linear_1799_34933" x1="119.382" y1="23.0304" x2="123.946" y2="28.8609" gradientUnits="userSpaceOnUse">
<stop stop-color="#F3F3F1"/>
<stop offset="1" stop-color="#F0E6C5"/>
</linearGradient>
<linearGradient id="paint4_linear_1799_34933" x1="136.152" y1="25.9661" x2="138.665" y2="32.4899" gradientUnits="userSpaceOnUse">
<stop stop-color="#F3F3F1"/>
<stop offset="1" stop-color="#F0E6C5"/>
</linearGradient>
<linearGradient id="paint5_linear_1799_34933" x1="161.184" y1="5.10194" x2="162.744" y2="8.04707" gradientUnits="userSpaceOnUse">
<stop stop-color="#F3F3F1"/>
<stop offset="1" stop-color="#F0E6C5"/>
</linearGradient>
<linearGradient id="paint6_linear_1799_34933" x1="170.245" y1="18.774" x2="173.29" y2="25.0902" gradientUnits="userSpaceOnUse">
<stop stop-color="#F3F3F1"/>
<stop offset="1" stop-color="#F0E6C5"/>
</linearGradient>
<linearGradient id="paint7_linear_1799_34933" x1="83.3096" y1="60.3073" x2="92.1039" y2="80.5287" gradientUnits="userSpaceOnUse">
<stop stop-color="#F3F3F1"/>
<stop offset="1" stop-color="#F0E6C5"/>
</linearGradient>
<linearGradient id="paint8_linear_1799_34933" x1="110.351" y1="67.7483" x2="111.194" y2="69.2743" gradientUnits="userSpaceOnUse">
<stop stop-color="#F3F3F1"/>
<stop offset="1" stop-color="#F0E6C5"/>
</linearGradient>
<linearGradient id="paint9_linear_1799_34933" x1="142.599" y1="59.2645" x2="145.693" y2="71.7931" gradientUnits="userSpaceOnUse">
<stop stop-color="#F3F3F1"/>
<stop offset="1" stop-color="#F0E6C5"/>
</linearGradient>
<clipPath id="clip0_1799_34933">
<rect width="226.087" height="120" fill="white"/>
</clipPath>
<clipPath id="clip1_1799_34933">
<rect width="41.7665" height="41.7665" fill="white" transform="translate(182.725 1.56921) rotate(-4.15821)"/>
</clipPath>
</defs>
</svg>
