<svg width="196" height="48" viewBox="0 0 196 48" fill="none" xmlns="http://www.w3.org/2000/svg">
<path d="M156.037 33.8152C155.772 34.9644 155.33 36.4231 154.623 37.3072C154.446 37.1746 154.137 36.9978 153.916 36.9094C154.579 36.0695 155.021 34.6992 155.197 33.6826L156.037 33.8152ZM158.071 31.8702V38.0587C158.071 38.5449 157.938 38.7659 157.629 38.8985C157.319 39.0311 156.789 39.0311 156.037 39.0311C155.993 38.8101 155.86 38.4565 155.728 38.2797C156.258 38.3239 156.833 38.3239 157.01 38.2797C157.187 38.2797 157.231 38.2355 157.231 38.0587V31.8702H158.071ZM159.839 33.6384C160.502 34.7434 161.165 36.2021 161.342 37.1304L160.546 37.4398C160.369 36.5116 159.75 35.0087 159.131 33.9036L159.839 33.6384Z" fill="url(#paint0_linear_2453_36088)"/>
<path d="M163.199 35.2738C162.934 35.0085 162.359 34.6991 161.917 34.4781L162.315 33.9477C162.757 34.1245 163.376 34.4339 163.641 34.6991L163.199 35.2738ZM162.049 38.5448C162.359 37.9259 162.845 36.9093 163.155 36.0252L163.729 36.423C163.42 37.2629 163.022 38.1912 162.668 38.9426L162.049 38.5448ZM163.508 33.1962C163.243 32.931 162.713 32.5774 162.226 32.3564L162.668 31.8259C163.11 32.0027 163.685 32.3564 163.95 32.6216L163.508 33.1962ZM169.21 35.8484H168.061H168.15C168.017 36.0694 167.884 36.2904 167.796 36.4672H169.078V37.0419H166.868V37.5281H168.857V38.1028H166.868V39.031H166.16V38.1028H164.26V37.5281H166.16V37.0419H163.994V36.4672H165.188C165.144 36.2904 165.011 36.0694 164.923 35.8926L165.099 35.8484H163.773V35.2738H166.116V34.8317H164.392V34.2571H166.116V33.8593H164.171V31.9585H168.857V33.8593H166.868V34.2571H168.68V34.8317H166.868V35.2738H169.21V35.8484ZM165.542 32.5774H164.834V33.3288H165.542V32.5774ZM167.044 36.4672C167.133 36.2904 167.265 36.0694 167.31 35.8484H165.586C165.718 36.0252 165.807 36.2904 165.851 36.423L165.718 36.4672H167.133H167.044ZM166.116 33.3288H166.868V32.5774H166.116V33.3288ZM167.442 33.3288H168.194V32.5774H167.442V33.3288Z" fill="url(#paint1_linear_2453_36088)"/>
<path d="M178.05 33.6824C177.476 34.6106 176.459 35.8925 175.266 36.865C175.752 37.3512 176.238 37.8817 176.547 38.2795L175.796 38.8541C175.487 38.4121 174.823 37.7049 174.337 37.1744C173.851 36.6882 173.011 35.9367 172.569 35.6273L173.232 35.0969C173.542 35.3179 174.116 35.8041 174.647 36.2904C175.708 35.4947 176.547 34.4338 176.901 33.7266H172.437C172.127 33.7266 171.729 33.7708 171.597 33.7708V32.8867C171.818 32.9309 172.171 32.9309 172.437 32.9309H177.034C177.299 32.9309 177.52 32.8867 177.652 32.8425L178.271 33.373C178.227 33.5056 178.139 33.594 178.05 33.6824Z" fill="url(#paint2_linear_2453_36088)"/>
<path d="M180.349 32.9752V35.6274C180.349 35.8484 180.349 36.1136 180.393 36.2904H179.465C179.465 36.1578 179.509 35.8926 179.509 35.6274V32.9752C179.509 32.8426 179.509 32.5332 179.465 32.4006H180.393C180.393 32.5774 180.349 32.7542 180.349 32.9752ZM184.062 33.0636V34.4781C184.062 36.2904 183.797 36.9535 183.178 37.6165C182.648 38.2353 181.852 38.589 181.277 38.7658L180.614 38.0585C181.366 37.8817 182.029 37.5723 182.515 37.0419C183.09 36.423 183.178 35.8042 183.178 34.3897V33.0194C183.178 32.7542 183.134 32.489 183.134 32.2679H184.062C184.062 32.5332 184.062 32.7984 184.062 33.0636Z" fill="url(#paint3_linear_2453_36088)"/>
<path d="M191.798 33.373C191.444 33.9477 190.693 34.9644 189.853 35.5832L189.19 35.0528C189.897 34.6549 190.56 33.8593 190.826 33.4173H186.494C186.184 33.4173 185.919 33.4615 185.565 33.4615V32.5774C185.875 32.6216 186.184 32.6658 186.494 32.6658H190.914C191.091 32.6658 191.444 32.6216 191.577 32.6216L192.063 33.1078C192.019 33.152 191.886 33.2846 191.798 33.373ZM186.671 38.7658L185.919 38.1912C186.14 38.1028 186.405 37.9702 186.671 37.7933C187.82 37.0419 187.997 36.0694 187.997 34.7433C187.997 34.5223 187.997 34.3455 187.952 34.1245H188.836C188.881 36.1578 188.748 37.7049 186.671 38.7658Z" fill="url(#paint4_linear_2453_36088)"/>
<path d="M135.307 26.7425C134.113 27.7149 133.008 28.2454 132.433 28.2454C131.461 28.2454 129.649 27.2729 129.649 25.328C129.649 24.4881 129.825 23.7367 130.091 23.0736C130.091 22.9852 130.046 22.8968 130.046 22.7642C130.046 19.2279 133.848 16.7084 136.058 16.7084C137.915 16.7084 139.285 17.9019 139.285 19.6258C139.285 22.3664 137.517 24.7091 135.704 26.3004C138.18 26.1236 140.346 24.4439 141.628 23.162C141.628 23.162 141.76 22.9852 141.893 22.9852C142.025 22.9852 142.114 23.1178 142.114 23.162C142.114 23.2504 141.804 23.5156 141.672 23.6482C140.434 24.7975 138.489 26.6098 135.307 26.7425ZM135.041 18.2113C135.528 18.2113 136.367 19.3606 136.367 19.8026C136.367 20.0678 136.058 20.2004 135.837 20.333C134.29 21.2613 132.212 23.0736 131.284 24.8859C131.991 25.8142 133.229 26.3446 134.732 26.433C136.456 24.8859 138.18 22.2337 138.18 19.5816C138.18 18.2113 137.384 17.3272 135.793 17.3272C134.157 17.3272 131.24 19.2279 130.754 21.9685C131.417 20.9077 132.345 20.0678 133.185 19.3164C133.804 18.6975 134.467 18.2113 135.041 18.2113ZM130.886 26.3446C130.886 27.0961 131.328 27.7149 132.036 27.7149C132.654 27.7149 133.494 27.3613 134.29 26.7425C132.92 26.6098 131.77 26.1678 131.019 25.3722C130.93 25.6816 130.886 26.0352 130.886 26.3446Z" fill="url(#paint5_linear_2453_36088)"/>
<path d="M141.451 23.8255C141.363 23.8255 141.275 23.7371 141.275 23.6487C141.275 23.516 141.584 23.295 141.672 23.1624C142.601 22.2342 146.623 17.7697 148.303 17.7697C149.364 17.7697 150.557 19.0073 150.557 19.9356C150.557 22.1015 147.419 24.0023 145.96 25.903C147.551 25.903 150.027 27.4501 150.027 30.3675C150.027 30.6327 149.938 31.34 149.938 31.34C151.706 31.34 152.193 31.6052 152.193 31.7378C152.193 31.8704 152.06 32.0914 151.927 32.0914C151.795 32.0914 151.441 31.6936 149.85 31.6936C148.877 36.5559 143.971 42.3907 139.462 42.3907C138.225 42.3907 137.208 41.3741 137.208 40.0922C137.208 37.3958 142.556 33.1523 147.286 31.6052C147.551 30.5443 147.64 29.5277 147.64 28.6436C147.64 27.4059 147.109 26.345 145.783 26.345C144.855 26.345 144.325 27.0965 144.104 27.0965C143.794 27.0965 143.131 26.345 143.131 25.903C143.131 24.8421 148.48 21.5711 148.48 19.0073C148.48 18.6979 148.347 18.5653 148.126 18.5653C146.623 18.5653 142.866 22.4994 141.717 23.6929C141.584 23.7371 141.496 23.8255 141.451 23.8255ZM139.02 41.7719C142.822 41.7719 146.048 36.6443 147.198 32.0472C143.043 33.5943 138.092 37.7494 138.092 40.6226C138.092 41.1972 138.357 41.7719 139.02 41.7719Z" fill="url(#paint6_linear_2453_36088)"/>
<path d="M161.032 27.9801C159.706 27.9801 158.557 27.0519 158.557 25.5047C158.557 24.7091 158.689 24.0018 158.689 24.0018C156.612 26.0352 153.738 28.9968 152.766 28.9968C151.794 28.9968 150.379 27.8917 150.379 26.6098C150.379 23.2946 155.993 17.5924 159.573 17.5924C161.209 17.5924 162.756 19.0511 162.756 19.9352C162.756 20.5982 162.535 20.996 162.446 20.996C162.314 20.996 162.093 20.7308 162.093 20.5982C162.093 20.4656 162.314 20.2888 162.314 19.8026C162.314 19.4931 161.872 19.1395 161.562 19.1395C157.673 19.1395 152.28 24.9301 152.28 27.8033C152.28 28.1127 152.457 28.3337 152.81 28.3337C153.606 28.3337 156.567 25.4605 158.557 23.4714C159.794 22.2337 160.723 21.3939 161.076 21.3939C161.43 21.3939 162.579 22.4547 162.579 23.1178C162.579 23.604 160.767 24.9743 160.767 26.2562C160.767 26.7866 161.165 27.0519 161.695 27.0519C163.728 27.0519 167.662 23.1178 167.662 23.1178C167.751 23.0294 167.839 22.941 167.928 22.941C168.06 22.941 168.104 23.0736 168.104 23.1178C168.104 23.2062 167.795 23.4714 167.707 23.604C167.53 23.6924 163.331 27.9801 161.032 27.9801Z" fill="url(#paint7_linear_2453_36088)"/>
<path d="M170.492 17.6371C171.111 17.6371 172.039 18.5653 172.039 19.6262C172.039 21.3943 168.149 25.1074 168.149 27.7596C168.149 28.0248 168.326 28.1574 168.503 28.1574C169.21 28.1574 171.995 25.7262 174.117 22.4994C174.868 21.5269 175.178 20.6429 175.531 20.6429C175.841 20.6429 177.211 21.6154 177.211 22.2784C177.211 22.9414 175.885 24.5328 175.885 25.903C175.885 26.5219 176.239 26.8755 176.725 26.8755C178.935 26.8755 181.278 21.8806 181.278 18.9632C181.278 17.1509 180.836 16.8414 180.836 16.5762C180.836 16.4878 180.88 16.4436 180.968 16.4436C181.366 16.4436 182.604 17.1066 182.604 18.6538C182.604 21.6154 179.023 27.4059 176.636 27.4059C175.178 27.4059 173.984 26.4335 173.984 24.8422C173.984 24.4001 174.161 23.2509 174.161 23.2509C174.161 23.2509 170.006 28.6878 168.768 28.6878C167.752 28.6878 166.47 27.5386 166.47 25.9472C166.47 23.3393 170.139 20.2451 170.139 17.8581C170.139 17.7255 170.227 17.6371 170.492 17.6371Z" fill="url(#paint8_linear_2453_36088)"/>
<path d="M195.246 25.77C195.334 25.77 195.423 25.8584 195.423 25.9468C195.423 26.0794 195.202 26.2562 194.98 26.433C194.052 27.1845 193.08 27.9801 192.284 27.9801C190.958 27.9801 189.986 27.0519 189.986 25.5047C189.986 24.7091 190.118 24.0018 190.118 24.0018C188.041 26.0352 185.167 28.9968 184.195 28.9968C183.222 28.9968 181.808 27.8917 181.808 26.6098C181.808 23.2946 187.422 17.5924 191.002 17.5924C192.638 17.5924 194.185 19.0511 194.185 19.9352C194.185 20.5982 193.964 20.996 193.875 20.996C193.743 20.996 193.522 20.7308 193.522 20.5982C193.522 20.4656 193.743 20.2888 193.743 19.8026C193.743 19.4931 193.301 19.1395 192.991 19.1395C189.101 19.1395 183.709 24.9301 183.709 27.8033C183.709 28.1127 183.886 28.3337 184.239 28.3337C185.035 28.3337 187.996 25.4605 189.986 23.4714C191.223 22.2337 192.151 21.3939 192.505 21.3939C192.859 21.3939 194.008 22.4547 194.008 23.1178C194.008 23.604 192.196 24.9743 192.196 26.2562C192.196 26.7866 192.505 27.1403 192.991 27.1403C193.522 27.1403 194.141 26.654 194.804 26.1236C194.936 25.9468 195.157 25.77 195.246 25.77Z" fill="url(#paint9_linear_2453_36088)"/>
<path d="M51.1429 11.979C52.1595 11.979 54.0603 13.3493 54.0603 14.6754C54.0603 17.1066 47.9603 23.4276 47.9603 28.0247C47.9603 28.7762 48.3139 30.1022 49.5958 30.1022C49.7284 30.1022 49.861 30.1464 49.861 30.2791C49.861 30.4117 49.6842 30.5001 49.4632 30.5001C47.9603 30.5001 45.8385 29.3066 45.8385 26.6544C45.8385 22.1015 51.9827 15.8689 51.9827 13.3051C51.9827 12.9957 51.7617 12.7747 51.4965 12.7747C48.6233 12.7747 39.8269 21.5711 35.716 26.4776C34.7878 27.5385 34.3457 28.1573 34.0805 28.1573C33.3733 28.1573 31.8262 26.8312 31.8262 25.903C31.8262 22.2341 44.8218 7.3377 44.8218 4.77392C44.8218 4.4203 44.6892 4.15508 44.0704 4.15508C38.6776 4.15508 22.9414 26.3892 19.0957 31.2515C18.6979 31.782 18.4769 31.8704 18.0348 31.8704C17.1066 31.8704 15.1616 30.8537 15.1616 29.6602C15.1616 24.5769 27.6269 11.8464 27.6269 5.34856C27.6269 2.03334 25.7261 0.663045 23.516 0.663045C13.9239 0.618842 2.47537 11.9348 2.47537 18.6979C2.47537 20.4218 3.09421 21.7037 4.95074 21.7037C10.7413 21.7037 18.8747 12.421 19.9798 9.45944C20.024 9.37104 20.0682 9.23843 20.2008 9.23843C20.3776 9.23843 20.7754 9.90147 20.7754 10.2109C20.7754 11.979 11.2718 22.3225 4.4203 22.3225C2.29856 22.3225 0 20.5986 0 18.3C0 10.4761 13.5261 0 22.6761 0C26.566 0 29.8812 2.65218 29.8812 6.14422C29.8812 13.1283 17.5486 25.6377 17.5486 30.8095C17.5486 30.8979 17.637 30.9863 17.7254 30.9863C19.7145 30.9863 37.4841 3.40363 43.761 3.40363C45.3523 3.40363 46.8552 4.99494 46.8552 6.18842C46.8552 9.50364 35.274 21.7921 35.2298 25.7703C36.3791 24.4001 47.7834 11.979 51.1429 11.979Z" fill="url(#paint10_linear_2453_36088)"/>
<path d="M62.5915 26.8753C61.2654 26.8753 60.1162 25.947 60.1162 24.3999C60.1162 23.6042 60.2488 22.897 60.2488 22.897C58.1712 24.9303 55.298 27.8919 54.3256 27.8919C53.3531 27.8919 51.9386 26.7869 51.9386 25.505C51.9386 22.1897 57.5524 16.4875 61.1328 16.4875C62.7683 16.4875 64.3154 17.9462 64.3154 18.8303C64.3154 19.4934 64.0944 19.8912 64.006 19.8912C63.8734 19.8912 63.6524 19.626 63.6524 19.4934C63.6524 19.3607 63.8734 19.1839 63.8734 18.6977C63.8734 18.3883 63.4314 18.0347 63.122 18.0347C59.2321 18.0347 53.8393 23.8252 53.8393 26.6984C53.8393 27.0079 54.0161 27.2289 54.3698 27.2289C55.1654 27.2289 58.127 24.3557 60.1162 22.3665C61.3538 21.1289 62.2821 20.289 62.6357 20.289C62.9894 20.289 64.1386 21.3499 64.1386 22.0129C64.1386 22.4992 62.3263 23.8695 62.3263 25.1513C62.3263 25.6818 62.7241 25.947 63.2546 25.947C65.2879 25.947 69.222 22.0129 69.222 22.0129C69.3104 21.9245 69.3988 21.8361 69.4872 21.8361C69.6198 21.8361 69.664 21.9687 69.664 22.0129C69.664 22.1013 69.3546 22.3665 69.2662 22.4992C69.1336 22.5876 64.9343 26.8753 62.5915 26.8753Z" fill="url(#paint11_linear_2453_36088)"/>
<path d="M72.5369 18.1674C71.5644 17.7695 70.2826 17.2391 70.2826 16.3108C70.2826 14.7637 72.1391 13.3934 73.1115 13.3934C73.6862 13.3934 74.7029 14.2333 74.7029 14.4985C74.7029 15.471 74.0398 16.7529 73.1115 17.9905C74.3934 18.6094 76.5152 18.963 76.5152 20.0681C76.5152 21.6594 73.642 23.8695 73.642 25.4609C73.642 25.9471 73.9514 26.4333 74.526 26.4333C76.0732 26.4333 80.405 22.1456 80.405 22.1456C80.4935 22.0572 80.5819 21.9688 80.6261 21.9688C80.7587 21.9688 80.8029 22.1014 80.8029 22.1898C80.8029 22.2782 80.5819 22.4993 80.4493 22.6319C80.4493 22.6319 76.1174 27.1406 74.084 27.1406C72.8463 27.1406 71.5202 26.0797 71.5202 24.8862C71.5202 22.4551 73.7304 20.4659 73.7304 19.184C73.7304 18.8304 73.421 18.5652 72.9789 18.3442C71.7413 19.9797 70.1942 21.571 69.2217 22.5877C69.1333 22.6761 69.0449 22.7645 69.0007 22.7645C68.9123 22.7645 68.8239 22.6761 68.8239 22.5877C68.8239 22.4993 69.0449 22.2782 69.1775 22.1014C70.0173 21.129 71.476 19.6703 72.5369 18.1674ZM73.7746 14.5869C73.421 14.5869 72.1391 15.471 72.1391 16.9297C72.1391 17.2833 72.4043 17.5927 72.7579 17.8579C73.4652 16.7971 73.9956 15.692 73.9956 14.8079C74.0398 14.6311 73.9072 14.5869 73.7746 14.5869Z" fill="url(#paint12_linear_2453_36088)"/>
<path d="M85.7545 18.079C85.7545 18.8305 81.0247 24.179 81.0247 25.9472C81.0247 26.4334 81.3342 26.6544 81.6878 26.6544C84.0305 26.6544 88.8487 22.1015 88.8487 22.1015C88.8487 22.1015 89.0255 21.9247 89.1581 21.9247C89.2465 21.9247 89.3349 22.0573 89.3349 22.1015C89.3349 22.1899 89.0255 22.4551 88.8929 22.5877C88.8929 22.5877 83.8537 27.4501 81.1573 27.4501C80.4943 27.4501 79.1682 26.4776 79.1682 25.1957C79.1682 23.3834 82.7487 18.7863 83.5443 16.8413C83.6769 16.5761 83.8537 16.4435 84.0305 16.4435C84.8262 16.3993 85.7545 17.3276 85.7545 18.079ZM89.8211 10.8739C89.8211 11.1833 89.2907 12.0232 88.9371 12.2C88.6719 12.3326 88.1414 12.5094 87.7878 12.5978C86.9921 12.8631 86.7711 13.3051 86.5943 13.3051C86.4617 13.3051 86.3291 13.2167 86.3291 13.0399C86.3291 12.0674 87.9204 9.98987 87.9204 8.9732C87.9204 8.84059 88.0088 8.79639 88.0972 8.79639C88.7603 8.84059 89.8211 10.2993 89.8211 10.8739Z" fill="url(#paint13_linear_2453_36088)"/>
<path d="M100.651 24.7094C100.739 24.7094 100.827 24.7978 100.827 24.8862C100.827 25.0188 100.606 25.1957 100.385 25.3725C99.4571 26.1239 98.4847 26.9196 97.689 26.9196C96.3629 26.9196 95.3905 25.9913 95.3905 24.4442C95.3905 23.6485 95.5231 22.9413 95.5231 22.9413C93.4455 24.9746 90.5723 27.9362 89.5999 27.9362C88.6274 27.9362 87.2129 26.8312 87.2129 25.5493C87.2129 22.234 92.8267 16.5319 96.4071 16.5319C98.0426 16.5319 99.5897 17.9906 99.5897 18.8746C99.5897 19.5377 99.3687 19.9355 99.2803 19.9355C99.1477 19.9355 98.9267 19.6703 98.9267 19.5377C98.9267 19.4051 99.1477 19.2282 99.1477 18.742C99.1477 18.4326 98.7057 18.079 98.3963 18.079C94.5064 18.079 89.1136 23.8696 89.1136 26.7428C89.1136 27.0522 89.2904 27.2732 89.6441 27.2732C90.4397 27.2732 93.4013 24.4 95.3905 22.4109C96.6281 21.1732 97.5564 20.3333 97.91 20.3333C98.2636 20.3333 99.4129 21.3942 99.4129 22.0572C99.4129 22.5435 97.6006 23.9138 97.6006 25.1957C97.6006 25.7261 97.91 26.0797 98.3963 26.0797C98.9267 26.0797 99.5455 25.5935 100.209 25.063C100.341 24.8862 100.562 24.7094 100.651 24.7094Z" fill="url(#paint14_linear_2453_36088)"/>
<path d="M105.955 25.6813C105.955 25.814 105.999 25.9024 106.044 25.9908C106.044 26.035 106.088 26.035 106.088 26.0792C106.132 26.1234 106.132 26.2118 106.176 26.256C106.22 26.3002 106.22 26.3444 106.265 26.3444C106.309 26.3886 106.353 26.4328 106.397 26.477C106.441 26.5212 106.441 26.5212 106.486 26.5654C106.53 26.6096 106.574 26.6538 106.618 26.698C106.662 26.7422 106.707 26.7422 106.707 26.7864C106.751 26.8306 106.795 26.8306 106.883 26.8748C106.928 26.8748 106.972 26.919 107.016 26.919C107.06 26.9632 107.149 26.9632 107.193 26.9632C107.237 26.9632 107.281 27.0074 107.325 27.0074C107.414 27.0074 107.458 27.0074 107.546 27.0516C107.591 27.0516 107.591 27.0516 107.635 27.0516C107.768 27.0516 107.856 27.0516 107.989 27.0074L111.083 26.4328H109.933C108.386 26.4328 107.149 25.1951 107.149 23.648V4.2871C107.149 4.15449 107.149 4.02188 107.193 3.93347L103.833 4.55231C103.126 4.68492 102.596 5.21536 102.463 5.8784C102.419 5.96681 102.419 6.09942 102.419 6.23203C102.419 6.36464 102.419 6.45304 102.463 6.58565L105.955 25.6813Z" fill="url(#paint15_linear_2453_36088)"/>
<path d="M109.933 25.4607H112.276L114.486 25.8585L117.359 26.389L117.89 26.4774L123.283 27.4941C123.415 27.5383 123.548 27.5383 123.68 27.5383C124.122 27.5383 124.52 27.4056 124.918 27.1404C125.404 26.831 125.714 26.3006 125.802 25.7701L129.338 6.67444C129.427 6.0998 129.338 5.52516 128.985 5.03893C128.675 4.5527 128.145 4.24328 127.614 4.15487L125.183 3.71284L123.99 3.49182C123.68 2.96139 123.15 2.60776 122.487 2.60776H119.172L118.818 2.51936L115.37 1.90052C114.575 1.76791 113.823 2.03313 113.337 2.60776H109.977C109.226 2.60776 108.563 3.094 108.342 3.75704C108.298 3.93385 108.254 4.11067 108.254 4.33168V23.7368C108.209 24.6651 108.961 25.4607 109.933 25.4607ZM110.066 22.8527L113.602 3.75704C113.735 3.04979 114.398 2.56356 115.105 2.69617L117.934 3.22661L119.083 3.44762L124.122 4.37588L125.183 4.5527L127.393 4.95052C127.747 4.99473 128.012 5.21574 128.233 5.48096C128.41 5.74618 128.499 6.0998 128.454 6.45343L124.918 25.5491C124.874 25.9027 124.653 26.168 124.388 26.389C124.122 26.5658 123.769 26.6542 123.415 26.61L122.575 26.4774L119.702 25.9469L117.006 25.4607L116.829 25.4165L111.083 24.3556C110.42 24.223 109.933 23.56 110.066 22.8527Z" fill="url(#paint16_linear_2453_36088)"/>
<path d="M114.663 14.896C114.398 16.3105 115.326 17.6808 116.741 17.946C117.315 18.0344 117.846 17.946 118.332 17.725C118.155 18.4322 117.757 19.0069 117.227 19.4047L118.332 19.6257L119.437 19.8467C119.083 19.2721 118.907 18.6091 118.995 17.9018C119.349 18.2996 119.835 18.5649 120.41 18.6533C120.586 18.6975 120.719 18.6975 120.896 18.6975C121.249 18.6975 121.603 18.6091 121.912 18.4765C122.708 18.1228 123.283 17.4598 123.46 16.5315C123.769 14.896 122.796 14.0119 120.896 11.2272C120.675 10.9177 120.542 10.6083 120.41 10.3873C120.189 9.94527 120.189 9.68005 120.189 9.68005C120.189 9.68005 120.012 10.0337 119.393 10.5199C119.26 10.6083 119.128 10.7409 118.951 10.8293C116.166 12.7743 114.973 13.2605 114.663 14.896Z" fill="url(#paint17_linear_2453_36088)"/>
<path d="M114.663 8.8404C114.795 8.8846 114.972 8.8404 115.105 8.7962C115.061 8.97301 114.928 9.14982 114.795 9.23823L115.105 9.28243L115.414 9.32663C115.326 9.19402 115.282 8.97301 115.282 8.7962C115.37 8.8846 115.503 8.97301 115.679 9.01721C116.077 9.10562 116.431 8.8404 116.519 8.44257C116.608 8.00054 116.342 7.73532 115.812 7.02808C115.635 6.76286 115.635 6.63025 115.635 6.63025C115.635 6.63025 115.591 6.76286 115.326 6.93967C114.574 7.47011 114.265 7.60272 114.176 8.04475C114.044 8.39837 114.265 8.7962 114.663 8.8404Z" fill="url(#paint18_linear_2453_36088)"/>
<path d="M115.061 5.92301C115.105 5.92301 115.105 5.92301 115.105 5.92301L115.149 5.87881L115.37 5.48098L116.166 5.61359L116.21 6.05562C116.21 6.09983 116.21 6.09983 116.21 6.14403C116.21 6.14403 116.21 6.14403 116.254 6.18823L116.475 6.23243C116.519 6.23243 116.519 6.23243 116.563 6.23243C116.563 6.23243 116.608 6.18823 116.563 6.14403L116.298 3.97808C116.298 3.93388 116.298 3.93388 116.254 3.88968C116.254 3.88968 116.21 3.84547 116.166 3.84547L115.945 3.80127C115.9 3.80127 115.9 3.80127 115.856 3.80127C115.856 3.80127 115.812 3.84547 115.812 3.88968L114.795 5.7904C114.751 5.83461 114.751 5.87881 114.751 5.87881C114.751 5.87881 114.751 5.87881 114.795 5.87881L115.061 5.92301ZM116.033 4.2433L116.166 5.30417L115.547 5.17156L116.033 4.2433Z" fill="url(#paint19_linear_2453_36088)"/>
<path d="M123.726 20.1121L123.416 20.0679L123.107 20.0237C123.195 20.1563 123.239 20.3773 123.239 20.5541C123.151 20.4657 123.018 20.3773 122.842 20.3331C122.621 20.2889 122.4 20.3773 122.267 20.4657C122.134 20.5541 122.046 20.7309 122.002 20.8635C121.913 21.2614 122.134 21.4824 122.532 22.1012C122.576 22.1454 122.621 22.2338 122.665 22.3222C122.842 22.5875 122.842 22.7201 122.842 22.7201C122.842 22.7201 122.886 22.5875 123.151 22.4106C123.549 22.1012 123.858 21.9686 124.035 21.7918C124.168 21.6592 124.256 21.5266 124.3 21.3498C124.345 21.0846 124.256 20.8193 124.035 20.6425C123.947 20.5983 123.858 20.5099 123.726 20.5099C123.593 20.4657 123.416 20.5099 123.284 20.5541C123.46 20.3773 123.593 20.2005 123.726 20.1121Z" fill="url(#paint20_linear_2453_36088)"/>
<path d="M123.459 23.4272C123.415 23.4272 123.415 23.4272 123.415 23.4272L123.371 23.4714L123.15 23.8692L122.619 23.7808L122.31 23.7366L122.265 23.2946C122.265 23.2504 122.265 23.2504 122.265 23.2062C122.265 23.2062 122.265 23.2062 122.221 23.162L122 23.1178C121.956 23.1178 121.956 23.1178 121.912 23.1178C121.868 23.1178 121.868 23.162 121.912 23.2062L122.133 24.7975L122.221 25.3722C122.221 25.4164 122.221 25.4164 122.221 25.4164C122.221 25.4164 122.265 25.4606 122.31 25.4606L122.531 25.5048C122.575 25.5048 122.575 25.5048 122.619 25.5048C122.619 25.5048 122.663 25.4606 122.663 25.4164L122.707 25.3722L123.724 23.5156C123.768 23.4714 123.768 23.4272 123.768 23.4272C123.768 23.4272 123.768 23.4272 123.724 23.4272H123.459ZM122.486 25.1069L122.398 24.3555L122.354 24.0461L122.531 24.0903L122.973 24.1787L122.486 25.1069Z" fill="url(#paint21_linear_2453_36088)"/>
<path d="M152.192 31.5177C152.192 31.5177 95.6562 21.9257 18.8755 44.7344C18.8755 44.6902 69.1343 21.7046 152.192 31.5177Z" fill="url(#paint22_linear_2453_36088)"/>
<path d="M75.4719 47.1249C76.5066 47.1249 77.3543 46.9157 78.0148 46.4974C78.6753 46.0681 79.1156 45.4901 79.3358 44.7636L79.7816 44.9617C79.6605 45.358 79.5339 46.0956 79.4018 47.1744C78.0478 47.6808 76.7213 47.934 75.4223 47.934C73.617 47.934 72.1859 47.4441 71.1291 46.4644C70.0723 45.4736 69.5439 44.1031 69.5439 42.3528C69.5439 40.6025 70.0668 39.1549 71.1126 38.0101C72.1584 36.8542 73.5895 36.2763 75.4058 36.2763C75.9122 36.2763 76.4791 36.3203 77.1066 36.4084C77.7341 36.4854 78.1634 36.5239 78.3946 36.5239C78.6257 36.5239 78.8734 36.4909 79.1376 36.4249V36.6726C79.1376 37.4762 79.2037 38.2522 79.3358 39.0008L78.8899 39.1989C78.4496 37.7569 77.2827 37.0358 75.3893 37.0358C74.2885 37.0358 73.3418 37.4266 72.5492 38.2082C72.1529 38.5935 71.8392 39.1054 71.608 39.7438C71.3878 40.3823 71.2777 41.0703 71.2777 41.8079C71.2777 42.5344 71.3548 43.1949 71.5089 43.7894C71.663 44.3838 71.8997 44.9342 72.2189 45.4406C72.5382 45.947 72.9785 46.3543 73.5399 46.6625C74.1014 46.9707 74.7453 47.1249 75.4719 47.1249Z" fill="#E9E6DB"/>
<path d="M84.4413 47.7854C83.7478 47.7523 83.0653 47.7358 82.3938 47.7358C81.7333 47.7358 81.0563 47.7523 80.3628 47.7854L80.3132 47.3065C80.8196 47.2074 81.1774 47.1028 81.3865 46.9928C81.5957 46.8717 81.7333 46.7066 81.7993 46.4974L85.0853 36.4414L86.5219 36.2763L90.3692 46.5965C90.4463 46.7836 90.5729 46.9267 90.749 47.0258C90.9362 47.1139 91.2774 47.2074 91.7728 47.3065L91.7232 47.7854C91.0297 47.7523 90.2757 47.7358 89.461 47.7358C88.6464 47.7358 87.8924 47.7523 87.1989 47.7854L87.1493 47.3065C87.9309 47.1524 88.3822 47.0093 88.5033 46.8772C88.5694 46.8221 88.6024 46.7671 88.6024 46.7121C88.6024 46.646 88.2997 45.6553 87.6942 43.7398H83.9624L83.0708 46.679C83.0708 46.8221 83.1809 46.9377 83.401 47.0258C83.6212 47.1139 83.9845 47.2074 84.4908 47.3065L84.4413 47.7854ZM85.7623 37.9935H85.6962C85.6192 38.2577 85.5201 38.577 85.399 38.9513C85.2889 39.3145 85.1183 39.887 84.8871 40.6685C84.656 41.4391 84.4248 42.2097 84.1936 42.9803H87.43L85.7623 37.9935Z" fill="#E9E6DB"/>
<path d="M98.6475 39.1989C98.4273 38.3953 98.1191 37.8449 97.7228 37.5477C97.3375 37.2505 96.8311 37.1019 96.2036 37.1019C95.5762 37.1019 95.0973 37.256 94.7671 37.5642C94.4368 37.8614 94.2717 38.2302 94.2717 38.6705C94.2717 39.3861 94.6405 39.986 95.378 40.4704L97.987 42.1712C99.1318 42.9197 99.7042 43.8059 99.7042 44.8296C99.7042 45.6553 99.374 46.3763 98.7135 46.9928C98.064 47.5982 97.1118 47.9009 95.8569 47.9009C94.6019 47.9009 93.5066 47.7028 92.5709 47.3065C92.747 46.4038 92.8351 45.5947 92.8351 44.8792L93.2809 44.681C93.4461 45.5837 93.7048 46.2057 94.057 46.5469C94.4093 46.8882 94.9542 47.0588 95.6917 47.0588C96.4403 47.0588 97.0072 46.8772 97.3925 46.5139C97.7888 46.1506 97.987 45.7213 97.987 45.2259C97.987 44.5544 97.6292 43.9875 96.9137 43.5252L94.2717 41.7914C93.2589 41.1309 92.7526 40.2832 92.7526 39.2485C92.7526 38.4449 93.0663 37.7514 93.6938 37.1679C94.3212 36.5735 95.1413 36.2763 96.1541 36.2763C96.4843 36.2763 96.8476 36.3203 97.2439 36.4084C97.6512 36.4854 97.9594 36.5239 98.1686 36.5239C98.3778 36.5239 98.6199 36.4909 98.8951 36.4249V36.6726C98.8951 37.4762 98.9612 38.2522 99.0933 39.0008L98.6475 39.1989Z" fill="#E9E6DB"/>
<path d="M104.201 37.5642C104.113 38.2137 104.069 39.3916 104.069 41.0979C104.069 43.8609 104.102 45.5782 104.168 46.2497L104.201 46.5965C104.223 46.7946 104.327 46.9377 104.515 47.0258C104.702 47.1028 105.065 47.1964 105.604 47.3065L105.555 47.7854C104.861 47.7523 104.107 47.7358 103.293 47.7358C102.478 47.7358 101.724 47.7523 101.031 47.7854L100.981 47.3065C101.542 47.1964 101.922 47.0973 102.12 47.0093C102.318 46.9212 102.429 46.7836 102.451 46.5965C102.539 45.947 102.583 44.7691 102.583 43.0628C102.583 40.2998 102.55 38.577 102.484 37.8945L102.451 37.5642C102.429 37.3661 102.329 37.2285 102.153 37.1514C101.977 37.0633 101.625 36.9643 101.097 36.8542L101.146 36.3753C101.84 36.4084 102.566 36.4249 103.326 36.4249C104.085 36.4249 104.812 36.4084 105.505 36.3753L105.555 36.8542C105.027 36.9643 104.674 37.0633 104.498 37.1514C104.322 37.2285 104.223 37.3661 104.201 37.5642Z" fill="#E9E6DB"/>
<path d="M116.185 45.5562C116.208 44.9397 116.219 43.9435 116.219 42.5675C116.219 40.0466 116.185 38.4889 116.119 37.8945L116.07 37.5642C116.037 37.3 115.745 37.1129 115.195 37.0028C115.063 36.9698 114.837 36.9202 114.518 36.8542L114.567 36.3753C115.261 36.4084 115.943 36.4249 116.615 36.4249C117.297 36.4249 117.985 36.4084 118.679 36.3753L118.728 36.8542C118.2 36.9643 117.848 37.0633 117.672 37.1514C117.495 37.2285 117.396 37.3661 117.374 37.5642C117.264 38.2137 117.209 39.3916 117.209 41.0979C117.209 43.7068 117.253 45.7103 117.341 47.1084L117.391 47.7358L116.07 47.8844L109.366 38.8687H109.283C109.239 39.8374 109.217 40.8777 109.217 41.9895C109.217 44.0701 109.261 45.4901 109.349 46.2497L109.399 46.5965C109.432 46.8607 109.724 47.0533 110.274 47.1744C110.406 47.1964 110.632 47.2405 110.951 47.3065L110.902 47.7854C110.208 47.7523 109.481 47.7358 108.722 47.7358C107.962 47.7358 107.236 47.7523 106.542 47.7854L106.493 47.3065C107.076 47.1964 107.483 47.0973 107.715 47.0093C107.946 46.9212 108.072 46.7836 108.094 46.5965C108.183 45.958 108.227 44.7856 108.227 43.0793C108.227 40.3053 108.194 38.577 108.127 37.8945L108.094 37.5642C108.072 37.3661 107.973 37.2285 107.797 37.1514C107.621 37.0633 107.269 36.9643 106.74 36.8542L106.79 36.3753C107.483 36.4084 108.304 36.4249 109.25 36.4249L116.103 45.5562H116.185Z" fill="#E9E6DB"/>
<path d="M125.683 37.0028C125.044 37.0028 124.477 37.1294 123.982 37.3826C123.487 37.6358 123.096 37.9495 122.81 38.3238C122.523 38.6981 122.292 39.1219 122.116 39.5952C121.808 40.3878 121.654 41.1584 121.654 41.907C121.654 42.6555 121.72 43.3325 121.852 43.938C121.984 44.5324 122.193 45.0828 122.479 45.5892C122.765 46.0956 123.167 46.4919 123.685 46.7781C124.202 47.0643 124.78 47.2074 125.418 47.2074C126.068 47.2074 126.629 47.0973 127.103 46.8772C127.576 46.657 127.956 46.3818 128.242 46.0516C128.539 45.7103 128.787 45.325 128.985 44.8957C129.337 44.1361 129.525 43.3656 129.547 42.584C129.547 38.8632 128.259 37.0028 125.683 37.0028ZM129.893 46.0185C129.431 46.624 128.803 47.1084 128.011 47.4716C127.218 47.8239 126.299 48 125.253 48C123.448 48 122.105 47.5157 121.224 46.5469C120.355 45.5672 119.92 44.2352 119.92 42.5509C119.92 40.8557 120.382 39.4026 121.307 38.1917C121.769 37.5862 122.397 37.1074 123.189 36.7551C123.982 36.3918 124.901 36.2102 125.947 36.2102C127.752 36.2102 129.09 36.6946 129.959 37.6633C130.84 38.632 131.28 39.9585 131.28 41.6428C131.28 43.327 130.818 44.7856 129.893 46.0185Z" fill="#E9E6DB"/>
<defs>
<linearGradient id="paint0_linear_2453_36088" x1="157.629" y1="31.8702" x2="157.629" y2="39.0311" gradientUnits="userSpaceOnUse">
<stop stop-color="#E5E5E5"/>
<stop offset="1" stop-color="#F0E6C5"/>
</linearGradient>
<linearGradient id="paint1_linear_2453_36088" x1="165.564" y1="31.8259" x2="165.564" y2="39.031" gradientUnits="userSpaceOnUse">
<stop stop-color="#E5E5E5"/>
<stop offset="1" stop-color="#F0E6C5"/>
</linearGradient>
<linearGradient id="paint2_linear_2453_36088" x1="174.934" y1="32.8425" x2="174.934" y2="38.8541" gradientUnits="userSpaceOnUse">
<stop stop-color="#E5E5E5"/>
<stop offset="1" stop-color="#F0E6C5"/>
</linearGradient>
<linearGradient id="paint3_linear_2453_36088" x1="181.764" y1="32.2679" x2="181.764" y2="38.7658" gradientUnits="userSpaceOnUse">
<stop stop-color="#E5E5E5"/>
<stop offset="1" stop-color="#F0E6C5"/>
</linearGradient>
<linearGradient id="paint4_linear_2453_36088" x1="188.814" y1="32.5774" x2="188.814" y2="38.7658" gradientUnits="userSpaceOnUse">
<stop stop-color="#E5E5E5"/>
<stop offset="1" stop-color="#F0E6C5"/>
</linearGradient>
<linearGradient id="paint5_linear_2453_36088" x1="135.881" y1="16.7084" x2="135.881" y2="28.2454" gradientUnits="userSpaceOnUse">
<stop stop-color="#E5E5E5"/>
<stop offset="1" stop-color="#F0E6C5"/>
</linearGradient>
<linearGradient id="paint6_linear_2453_36088" x1="144.7" y1="17.7697" x2="144.7" y2="42.3907" gradientUnits="userSpaceOnUse">
<stop stop-color="#E5E5E5"/>
<stop offset="1" stop-color="#F0E6C5"/>
</linearGradient>
<linearGradient id="paint7_linear_2453_36088" x1="159.242" y1="17.5924" x2="159.242" y2="28.9968" gradientUnits="userSpaceOnUse">
<stop stop-color="#E5E5E5"/>
<stop offset="1" stop-color="#F0E6C5"/>
</linearGradient>
<linearGradient id="paint8_linear_2453_36088" x1="174.537" y1="16.4436" x2="174.537" y2="28.6878" gradientUnits="userSpaceOnUse">
<stop stop-color="#E5E5E5"/>
<stop offset="1" stop-color="#F0E6C5"/>
</linearGradient>
<linearGradient id="paint9_linear_2453_36088" x1="188.615" y1="17.5924" x2="188.615" y2="28.9968" gradientUnits="userSpaceOnUse">
<stop stop-color="#E5E5E5"/>
<stop offset="1" stop-color="#F0E6C5"/>
</linearGradient>
<linearGradient id="paint10_linear_2453_36088" x1="27.0301" y1="0" x2="27.0301" y2="31.8704" gradientUnits="userSpaceOnUse">
<stop stop-color="#E5E5E5"/>
<stop offset="1" stop-color="#F0E6C5"/>
</linearGradient>
<linearGradient id="paint11_linear_2453_36088" x1="60.8013" y1="16.4875" x2="60.8013" y2="27.8919" gradientUnits="userSpaceOnUse">
<stop stop-color="#E5E5E5"/>
<stop offset="1" stop-color="#F0E6C5"/>
</linearGradient>
<linearGradient id="paint12_linear_2453_36088" x1="74.8134" y1="13.3934" x2="74.8134" y2="27.1406" gradientUnits="userSpaceOnUse">
<stop stop-color="#E5E5E5"/>
<stop offset="1" stop-color="#F0E6C5"/>
</linearGradient>
<linearGradient id="paint13_linear_2453_36088" x1="84.4947" y1="8.79639" x2="84.4947" y2="27.4501" gradientUnits="userSpaceOnUse">
<stop stop-color="#E5E5E5"/>
<stop offset="1" stop-color="#F0E6C5"/>
</linearGradient>
<linearGradient id="paint14_linear_2453_36088" x1="94.0202" y1="16.5319" x2="94.0202" y2="27.9362" gradientUnits="userSpaceOnUse">
<stop stop-color="#E5E5E5"/>
<stop offset="1" stop-color="#F0E6C5"/>
</linearGradient>
<linearGradient id="paint15_linear_2453_36088" x1="106.751" y1="3.93347" x2="106.751" y2="27.0516" gradientUnits="userSpaceOnUse">
<stop stop-color="#E5E5E5"/>
<stop offset="1" stop-color="#F0E6C5"/>
</linearGradient>
<linearGradient id="paint16_linear_2453_36088" x1="118.811" y1="1.86694" x2="118.811" y2="27.5383" gradientUnits="userSpaceOnUse">
<stop stop-color="#E5E5E5"/>
<stop offset="1" stop-color="#F0E6C5"/>
</linearGradient>
<linearGradient id="paint17_linear_2453_36088" x1="119.067" y1="9.68005" x2="119.067" y2="19.8467" gradientUnits="userSpaceOnUse">
<stop stop-color="#E5E5E5"/>
<stop offset="1" stop-color="#F0E6C5"/>
</linearGradient>
<linearGradient id="paint18_linear_2453_36088" x1="115.337" y1="6.63025" x2="115.337" y2="9.32663" gradientUnits="userSpaceOnUse">
<stop stop-color="#E5E5E5"/>
<stop offset="1" stop-color="#F0E6C5"/>
</linearGradient>
<linearGradient id="paint19_linear_2453_36088" x1="115.667" y1="3.80127" x2="115.667" y2="6.23243" gradientUnits="userSpaceOnUse">
<stop stop-color="#E5E5E5"/>
<stop offset="1" stop-color="#F0E6C5"/>
</linearGradient>
<linearGradient id="paint20_linear_2453_36088" x1="123.147" y1="20.0237" x2="123.147" y2="22.7201" gradientUnits="userSpaceOnUse">
<stop stop-color="#E5E5E5"/>
<stop offset="1" stop-color="#F0E6C5"/>
</linearGradient>
<linearGradient id="paint21_linear_2453_36088" x1="122.824" y1="23.1178" x2="122.824" y2="25.5048" gradientUnits="userSpaceOnUse">
<stop stop-color="#E5E5E5"/>
<stop offset="1" stop-color="#F0E6C5"/>
</linearGradient>
<linearGradient id="paint22_linear_2453_36088" x1="85.5337" y1="29.0804" x2="85.5337" y2="44.7344" gradientUnits="userSpaceOnUse">
<stop stop-color="#E5E5E5"/>
<stop offset="1" stop-color="#F0E6C5"/>
</linearGradient>
</defs>
</svg>
