<svg width="588" height="264" viewBox="0 0 588 264" fill="none" xmlns="http://www.w3.org/2000/svg">
<path d="M176.083 172.952C174.664 173.329 173.389 173.706 172.097 173.921C158.451 176.292 148.828 168.642 148.433 152.731C147.786 126.01 172.151 80.3432 182.833 66.9646C164.52 79.3196 116.187 144.722 116.51 158.424C116.582 161.046 107.568 157.885 107.443 152.21C107.102 138.221 135.541 78.7988 145.075 66.8569C127.426 80.3432 102.182 111.141 84.2994 136.084C67.7993 159.663 59.7557 174.406 59.8455 178.285C59.8814 180.081 67.5121 174.316 67.0093 174.963C63.9032 180.099 57.1344 183.493 54.5489 183.942C52.3585 184.319 50.2399 182.182 50.1681 179.56C49.7372 161.836 113.655 66.6414 113.17 46.9776C113.009 40.4768 107.066 40.3871 102.29 41.2131C66.2373 47.4445 8.44195 122.831 8.6574 131.541C8.69331 133.211 10.1297 133.786 11.2967 133.588C12.5894 133.373 16.306 132.026 17.5808 131.379C17.6167 132.618 9.96808 137.287 7.0056 137.808C2.89403 138.527 0.0931368 135.528 0.00336459 131.379C-0.535269 109.094 63.7237 44.4096 102.218 37.7293C114.445 35.6103 121.178 41.1054 121.447 52.4547C121.77 65.5998 101.195 102.683 84.6765 130.571C120.675 79.4094 152.903 48.5219 158.703 47.5163C162.814 46.798 169.619 49.9227 170.409 55.3639C169.87 54.6276 168.452 54.5917 167.554 54.7533C162.401 55.6512 131.178 111.949 118.539 145.297C143.639 93.3626 202.332 33.8325 210.95 32.324C215.331 31.5698 221.561 37.855 222.154 40.9438C220.969 40.3152 219.173 40.6205 218.006 40.836C206.408 42.8473 155.974 122.508 156.728 154.204C157.051 167.492 162.581 171.946 176.352 169.145L176.083 172.952Z" fill="url(#paint0_linear_44_2139)"/>
<path d="M214.738 112.398C210.968 116.906 186.37 142.729 180.966 143.627C180.715 143.663 180.05 143.519 179.799 143.43C177.447 142.639 173.982 138.276 173.928 135.69C173.587 121.593 202.386 87.9399 226.085 84.061C230.987 83.2529 237.469 84.2765 237.612 90.3462C237.666 92.5371 236.553 94.9255 235.314 96.829C235.063 96.9906 234.793 96.9188 234.919 96.7572C235.529 95.4822 236.266 93.8121 236.23 91.8727C236.14 87.9938 233.644 86.4494 229.784 87.3473C222.315 88.9635 213.051 95.9311 204.845 104.407C192.87 116.888 183.587 134.756 184.772 135.205C185.024 135.295 185.293 135.259 185.67 135.061C189.889 132.942 207.61 116.942 214.164 110.154C216.426 107.711 224.613 98.1938 227.791 95.8593C230.341 94.1533 234.883 100.528 234.416 102.18C233.734 100.995 222.495 116.978 218.832 125.885C218.096 127.824 217.629 129.458 217.647 130.482C225.708 126.819 243.699 106.095 251.491 97.2959C252.119 96.5417 252.784 97.4755 252.407 97.9244C241.49 112.039 221.022 137.072 213.302 138.33C212.656 138.437 212.009 138.276 211.093 137.917C209.262 137.18 206.749 134.864 206.695 132.529C206.659 131.236 207.144 129.602 207.61 127.573C209.047 122.545 212.368 116.026 214.738 112.398Z" fill="url(#paint1_linear_44_2139)"/>
<path d="M263.198 78.9066C263.952 78.2601 264.472 78.0446 264.993 77.9728C268.081 77.47 273.108 81.708 273.18 84.9404C273.198 85.4612 272.785 84.8686 271.762 84.9225C269.823 85.102 265.442 90.8845 261.707 96.6848C258.35 101.911 253.987 108.717 251.384 113.942C257.991 103.904 270.613 90.9383 281.493 81.1154C286.431 76.6798 290.237 73.8425 292.93 73.1421C294.349 72.783 299.753 77.47 298.873 78.6552C296.108 82.0851 285.641 93.2729 281.637 104.066C287.813 102.539 296.557 95.2662 304.367 86.844C304.493 86.7003 305.265 86.4309 305.391 86.6823C303.146 90.1662 288.047 107.172 279.159 108.627C276.843 109.004 272.875 105.107 272.821 103.563C272.731 99.9352 276.681 91.7644 279.931 87.3468C268.243 96.2718 262.318 102.431 253.789 113.565C247.398 121.754 239.947 134.396 242.801 135.222C239.085 136.731 235.907 133.229 234.901 129.763C234.614 128.65 235.207 126.082 236.679 122.849C239.713 114.948 245.297 105.089 250.27 96.8824C254.669 89.5017 260.038 82.0133 263.198 78.9066Z" fill="url(#paint2_linear_44_2139)"/>
<path d="M292.768 125.184C290.686 124.879 287.4 122.167 287.346 119.85C287.167 112.362 305.157 81.1154 313.236 73.178C313.865 72.4238 314.637 72.1724 315.157 72.0826C318.12 71.5977 323.399 75.9256 323.47 79.158C323.488 79.6788 322.824 79.14 321.783 79.1759C316.486 79.5171 299.555 111.877 298.137 117.444C305.947 114.086 324.314 93.0394 331.981 84.1323C332.861 83.3422 333.543 84.276 333.166 84.7249C322.25 98.714 302.284 123.137 294.312 125.094C293.792 125.148 293.415 125.22 292.768 125.184ZM334.225 53.2628C335.41 54.3582 336.236 56.172 335.715 56.2618C335.464 56.2977 334.423 55.9565 333.022 56.8364C330.85 58.0935 325.05 64.3607 323.56 66.821C321.819 69.4428 319.036 67.1622 318.856 64.8636C318.641 61.1283 323.327 51.9339 326.648 50.3537C329.593 49.4737 332.501 51.5927 334.225 53.2628Z" fill="url(#paint3_linear_44_2139)"/>
<path d="M356.291 89.2319C352.521 93.7393 327.923 119.563 322.519 120.461C322.267 120.497 321.603 120.353 321.352 120.263C319 119.473 315.534 115.109 315.481 112.523C315.139 98.4263 343.938 64.7734 367.638 60.8945C372.54 60.0864 379.021 61.11 379.165 67.1797C379.219 69.3706 378.106 71.759 376.867 73.6625C376.615 73.8241 376.346 73.7523 376.472 73.5907C377.082 72.3157 377.818 70.6456 377.782 68.7061C377.693 64.8273 375.197 63.2829 371.337 64.1808C363.868 65.797 354.603 72.7646 346.398 81.2407C334.422 93.7214 325.158 111.589 326.325 112.038C326.594 112.128 326.846 112.092 327.223 111.895C331.442 109.776 349.163 93.7753 355.716 86.9872C357.979 84.5449 366.166 75.0273 369.344 72.6928C371.893 70.9868 376.436 77.3618 375.969 79.0139C375.287 77.8287 364.047 93.8112 360.385 102.718C359.648 104.658 359.182 106.292 359.2 107.315C367.261 103.652 385.251 82.9287 393.044 74.1294C393.672 73.3752 394.336 74.309 393.959 74.7579C383.043 88.8728 362.575 113.906 354.855 115.163C354.208 115.271 353.562 115.109 352.646 114.75C350.815 114.014 348.301 111.697 348.247 109.363C348.211 108.07 348.696 106.436 349.163 104.406C350.581 99.3781 353.921 92.8594 356.291 89.2319Z" fill="url(#paint4_linear_44_2139)"/>
<path d="M407.66 40.7632C412.884 37.3153 428.11 14.7064 428.056 12.8927C428.038 12.2462 428.936 11.5818 429.708 11.4561C432.544 10.9892 436.117 14.5628 436.171 17.023C436.261 20.7762 418.737 39.7396 407.803 41.5175C407.552 41.5534 407.283 41.2122 407.66 40.7632Z" fill="url(#paint5_linear_44_2139)"/>
<path d="M433.872 70.3577C433.405 72.6384 436.547 74.2007 437.858 75.1525C458.182 60.1397 474.611 54.6087 476.28 54.3214C476.532 54.2855 477.052 54.4471 477.07 54.8422C478.237 55.0397 452.904 65.9401 439.061 76.643C440.766 77.6666 444.07 80.881 443.765 83.6645C442.167 92.3561 425.326 101.999 416.959 103.364C414.122 103.831 412.65 101.73 411.932 99.0004C412.183 93.3796 430.856 79.4264 435.326 76.8764C433.872 75.2961 426.152 71.8841 427.175 66.0119C429.006 55.8478 447.32 43.1157 458.649 41.2661C462.258 40.6735 464.071 46.3481 463.784 50.1552C463.694 51.9869 455.776 61.0735 452.293 61.6482C452.168 61.6662 451.898 61.1992 452.024 61.1813C452.419 61.1095 460.822 50.658 461.019 48.0362C455.058 48.4672 435.398 64.0186 433.872 70.3577ZM415.235 97.0251C420.227 94.7804 435.991 83.8979 435.883 78.9775C428.27 84.6521 418.88 92.6613 415.235 97.0251Z" fill="url(#paint6_linear_44_2139)"/>
<path d="M257.219 253.35C264.563 252.326 272.14 248.986 279.501 242.449C280.65 241.372 280.883 241.91 280.183 242.575C271.116 252.218 261.475 256.887 252.174 258.18C228.295 261.502 205.798 242.808 195.69 229.16C195.007 228.334 194.074 227.095 193.158 225.73C182.475 241.336 173.067 256.313 173.067 259.06C173.067 259.743 173.175 260.192 174.216 260.048C177.43 259.599 179.836 258.701 183.05 256.402C180.41 259.419 175.814 263.388 171.792 263.945C168.345 264.43 167.896 261.61 167.896 259.671C167.896 251.751 179.153 231.585 188.454 216.967L187.987 215.764C187.071 213.25 186.497 211.382 186.73 210.197C188.22 202.529 196.946 197.986 195.115 200.428C194.433 201.451 194.074 203.104 194.433 204.881C194.54 205.546 194.774 206.318 195.115 207.09C208.437 187.552 230.826 157.796 241.15 156.359C245.28 155.785 248.96 157.114 251.025 159.125C243.915 156.79 212.908 197.95 200.627 215.171C226.805 210.269 276.628 179.579 275.479 159.053C274.671 146.303 257.219 142.747 244.023 144.597C200.86 150.595 157.105 191.7 157.105 205.133C157.105 209.73 160.786 212.316 163.533 212.154C163.533 212.154 163.192 212.783 160.553 213.142C152.742 214.22 148.954 209.82 148.954 203.732C148.954 183.063 195.456 148.009 239.427 141.885C254.921 139.73 281.099 141.724 282.356 162.447C283.612 183.871 240.917 214.722 207.504 219.355C205.098 219.697 202.799 219.894 200.501 219.984C201.417 221.816 202.674 223.593 203.823 225.156C213.249 237.654 234.363 256.528 257.219 253.35Z" fill="url(#paint7_linear_44_2139)"/>
<path d="M312.465 168.553C288.998 173.329 261.241 222.426 268.458 224.06C275.676 225.551 294.528 201.092 303.416 186.133C302.787 185.11 301.548 181.482 302.087 180.081C302.5 178.717 306.45 174.048 308.138 173.563C309.43 173.168 310.849 173.922 311.1 174.245C313.506 177.747 316.576 180.099 321.765 178.645C330.473 176.095 335.339 170.079 336.757 169.917C336.075 171.857 330.832 177.19 324.44 180.548C321.568 182.039 318.838 182.847 316.774 183.278C314.835 183.673 313.542 183.673 312.896 183.547C309.143 201.451 282.014 225.551 268.279 227.562C262.318 228.388 258.494 224.276 258.565 219.355C258.871 198.273 287.598 171.426 308.084 167.242C313.003 166.236 315.068 167.242 315.966 167.834C316.612 168.086 316.217 168.175 315.696 168.283C314.404 168.409 313.38 168.355 312.465 168.553Z" fill="url(#paint8_linear_44_2139)"/>
<path d="M363.94 158.066C340.474 162.842 312.716 211.939 319.934 213.573C327.152 215.064 346.004 190.605 354.891 175.646C354.263 174.605 353.024 170.995 353.563 169.595C353.975 168.23 357.925 163.561 359.613 163.076C360.906 162.681 362.324 163.435 362.576 163.758C364.982 167.26 368.052 169.613 373.241 168.158C381.948 165.608 386.814 159.592 388.233 159.431C387.55 161.37 382.308 166.703 375.916 170.062C373.043 171.552 370.332 172.36 368.249 172.791C366.31 173.186 365.017 173.186 364.371 173.061C360.619 190.964 333.49 215.064 319.754 217.075C313.794 217.901 309.969 213.789 310.041 208.868C310.346 187.786 339.073 160.939 359.559 156.755C364.479 155.749 366.544 156.755 367.441 157.347C368.088 157.599 367.693 157.689 367.172 157.796C365.897 157.922 364.856 157.886 363.94 158.066Z" fill="url(#paint9_linear_44_2139)"/>
<path d="M423.639 195.525C420.605 195.274 416.96 191.988 416.996 189.527C417.103 182.165 431.557 157.688 438.397 150.11C414.554 171.21 400.729 196.316 397.102 197.07C395.289 197.447 391.195 194.143 391.231 191.557C391.303 186.636 401.573 165.985 410.37 156.341C397.156 166.901 384.911 181.5 375.288 194.035C373.043 196.944 371.589 198.919 370.673 200.266C366.975 205.276 366.292 207.988 368.231 208.491C364.335 210.197 361.014 206.875 360.026 203.463C359.775 202.601 360.349 199.009 363.815 192.383C369.542 180.782 377.496 167.296 384.767 157.437C386.617 154.869 388.466 152.696 389.902 151.241C390.423 150.613 391.213 150.326 391.59 150.254C394.84 149.589 399.688 153.63 399.634 156.862C399.634 157.383 399.113 156.844 398.09 156.916C397.192 156.97 395.343 158.64 393.637 161.046C387.963 168.517 376.311 187.786 373.241 193.424C381.697 180.746 410.083 149.823 415.559 147.542C415.829 147.363 416.08 147.309 416.331 147.255C418.917 146.734 423.1 152.319 421.789 153.881C415.075 162.214 403.117 183.206 403.063 187.732C415.487 169.864 440.48 140.934 445.92 139.82C448.775 139.246 452.94 145.351 451.235 147.111C447.949 150.361 427.302 182.542 427.23 188.217C427.23 188.217 435.74 193.317 480.088 155.479C480.088 155.497 442.473 197.052 423.639 195.525Z" fill="url(#paint10_linear_44_2139)"/>
<path d="M160.875 167.169C160.875 167.169 166.207 175.124 185.149 162.428C204.091 149.732 184.503 168.641 184.503 168.641C184.503 168.641 178.452 174.639 168.721 174.316C158.971 173.975 160.875 167.169 160.875 167.169Z" fill="#F0E6C5"/>
<path d="M530.305 109.669C546.877 91.8546 560.773 71.8855 572.498 50.5875C577.435 41.6086 582.229 32.3244 585.317 22.5015C587.023 17.0782 589.518 8.53031 585.263 3.60987C579.733 -2.80107 567.973 0.682746 561.671 3.69966C552.999 7.84791 546.194 15.3722 540.808 23.1839C535.458 30.9237 531.166 39.4178 527.486 48.0734C525.313 53.2094 523.123 58.489 521.615 63.8763C521.543 64.1457 521.453 64.415 521.363 64.6844C524.559 64.5587 527.773 64.415 530.969 64.2893C534.326 51.3058 537.073 36.8677 534.703 23.4533C533.249 15.2465 528.922 7.75813 519.676 7.91975C508.059 8.13524 498.005 16.2163 493.085 26.2726C490.41 31.7498 488.956 37.7656 487.986 43.7456C486.873 50.6055 487.232 56.1006 488.184 63.0143C489.602 73.394 493.516 81.1876 496.784 85.8746C500.051 90.5616 507.862 95.087 506.012 91.4236C505.15 89.7176 504.271 87.6525 503.337 85.3359C501.362 80.3975 499.692 75.3334 498.454 70.1436C495.563 58.0221 496.245 45.7928 499.71 33.8508C501.111 29.0202 503.068 24.3332 506.228 20.3825C509.083 16.8268 512.53 14.6001 516.587 13.5585C516.103 13.6842 517.342 13.4148 517.503 13.3789C517.719 13.325 517.916 13.3071 518.132 13.2712C518.132 13.2712 517.072 13.325 517.593 13.343C518.67 13.3969 516.929 13.2353 517.719 13.325C518.544 13.4148 517.898 13.3071 517.934 13.325C518.814 13.5944 519.658 13.9536 520.394 14.6898C522.836 17.0962 523.985 20.4004 524.703 23.6867C527.683 37.0653 524.757 51.7009 521.381 64.7024C520.394 68.4915 530.035 67.5577 530.987 64.3073C534.326 52.9759 539.138 41.7882 545.045 31.5702C549.444 23.9561 554.669 16.3779 561.599 10.8828C563.448 9.4282 564.31 8.81764 566.267 7.77608C566.698 7.54263 567.147 7.32714 567.578 7.11164C568.566 6.62678 567.452 7.1296 568.188 6.84228C568.637 6.6627 569.086 6.50108 569.553 6.33946C569.858 6.23171 571.205 5.8546 570.702 5.9803C570.11 6.12396 571.474 5.83664 571.672 5.78277C571.923 5.72889 573.216 5.54931 572.515 5.6391C571.815 5.71093 573 5.62115 573.234 5.60319C573.449 5.58523 573.665 5.60319 573.88 5.58523C573.647 5.58523 572.982 5.5134 573.575 5.58523C573.898 5.62115 574.221 5.65706 574.562 5.69298C574.616 5.69298 573.898 5.44157 574.652 5.74685C574.796 5.80072 575.658 6.15988 575.137 5.90847C574.652 5.67502 575.46 6.12396 575.604 6.21375C575.855 6.37537 576.214 6.75249 575.783 6.3215C575.963 6.50108 576.142 6.68066 576.304 6.87819C576.465 7.09369 576.609 7.29122 576.753 7.50672C576.86 7.66834 577.202 8.38665 576.968 7.86587C577.453 9.01517 577.668 10.2722 577.74 11.4934C577.92 14.5821 577.148 17.9223 576.25 21.0649C573.665 30.1515 569.409 38.7892 564.957 47.1037C554.346 66.9112 542.065 90.813 527.181 107.675C514.325 122.239 497.52 141.67 482.312 153.755C482.33 153.773 518.275 122.598 530.305 109.669Z" fill="#A22E2E"/>
<defs>
<linearGradient id="paint0_linear_44_2139" x1="117.508" y1="60.2529" x2="132.895" y2="104.791" gradientUnits="userSpaceOnUse">
<stop stop-color="#F3F3F1"/>
<stop offset="1" stop-color="#F0E6C5"/>
</linearGradient>
<linearGradient id="paint1_linear_44_2139" x1="215.496" y1="94.8554" x2="222.085" y2="111.972" gradientUnits="userSpaceOnUse">
<stop stop-color="#F3F3F1"/>
<stop offset="1" stop-color="#F0E6C5"/>
</linearGradient>
<linearGradient id="paint2_linear_44_2139" x1="272.153" y1="84.6457" x2="279.809" y2="101.741" gradientUnits="userSpaceOnUse">
<stop stop-color="#F3F3F1"/>
<stop offset="1" stop-color="#F0E6C5"/>
</linearGradient>
<linearGradient id="paint3_linear_44_2139" x1="313.014" y1="63.9926" x2="324.981" y2="79.2905" gradientUnits="userSpaceOnUse">
<stop stop-color="#F3F3F1"/>
<stop offset="1" stop-color="#F0E6C5"/>
</linearGradient>
<linearGradient id="paint4_linear_44_2139" x1="357.048" y1="71.6889" x2="363.638" y2="88.8055" gradientUnits="userSpaceOnUse">
<stop stop-color="#F3F3F1"/>
<stop offset="1" stop-color="#F0E6C5"/>
</linearGradient>
<linearGradient id="paint5_linear_44_2139" x1="422.653" y1="16.9687" x2="426.749" y2="24.6874" gradientUnits="userSpaceOnUse">
<stop stop-color="#F3F3F1"/>
<stop offset="1" stop-color="#F0E6C5"/>
</linearGradient>
<linearGradient id="paint6_linear_44_2139" x1="446.407" y1="52.6995" x2="454.41" y2="69.2758" gradientUnits="userSpaceOnUse">
<stop stop-color="#F3F3F1"/>
<stop offset="1" stop-color="#F0E6C5"/>
</linearGradient>
<linearGradient id="paint7_linear_44_2139" x1="219.531" y1="163.86" x2="234.969" y2="197.022" gradientUnits="userSpaceOnUse">
<stop stop-color="#F3F3F1"/>
<stop offset="1" stop-color="#F0E6C5"/>
</linearGradient>
<linearGradient id="paint8_linear_44_2139" x1="299.924" y1="178.041" x2="306.74" y2="195.353" gradientUnits="userSpaceOnUse">
<stop stop-color="#F3F3F1"/>
<stop offset="1" stop-color="#F0E6C5"/>
</linearGradient>
<linearGradient id="paint9_linear_44_2139" x1="351.4" y1="167.554" x2="358.216" y2="184.867" gradientUnits="userSpaceOnUse">
<stop stop-color="#F3F3F1"/>
<stop offset="1" stop-color="#F0E6C5"/>
</linearGradient>
<linearGradient id="paint10_linear_44_2139" x1="423.508" y1="152.543" x2="429.611" y2="173.494" gradientUnits="userSpaceOnUse">
<stop stop-color="#F3F3F1"/>
<stop offset="1" stop-color="#F0E6C5"/>
</linearGradient>
</defs>
</svg>
